<svg width="80" height="94" viewBox="0 0 80 94" fill="none" xmlns="http://www.w3.org/2000/svg">
<path d="M21.1768 55.3994C21.1768 55.3994 18.3706 51.6262 15.5643 51.6262C12.7581 51.6262 7.56649 55.2579 11.3082 63.276C15.0499 71.294 22.3461 67.7095 22.3461 67.7095C22.3461 67.7095 23.4686 72.0958 25.6201 76.5293C28.4263 82.2835 37.079 87 45.9655 87C54.852 87 61.2596 83.1325 64.2062 77.567C70.5203 65.5871 65.1416 57.7577 65.6093 53.5128C66.077 49.2679 67.9011 39.4576 67.9946 34.7411C68.1817 24.8836 63.5046 16.4882 48.9121 15.4034C36.6113 14.4601 23.4219 13.9885 17.1545 28.1851C11.7759 40.4009 21.1768 55.3994 21.1768 55.3994Z" fill="white" stroke="#484848" stroke-width="0.7" stroke-miterlimit="10" stroke-linecap="round" stroke-linejoin="round"/>
<path d="M57 65C57 65 54.2048 66.8849 49.1446 66.9958C44.1325 67.1066 41 65 41 65" stroke="#484848" stroke-width="0.7" stroke-miterlimit="10" stroke-linecap="round" stroke-linejoin="round"/>
<path d="M33.1785 50.1797C32.5208 51.0992 34.0327 55.0433 35.5 54.5C37.2203 53.8313 38.5 54.5 39.4019 53.2308C39.9585 52.6456 40.3633 50.1797 39.5031 49.4273C38.896 48.884 37.0745 48.9676 36.1638 49.093C35.4554 49.1766 33.5327 49.6363 33.1785 50.1797Z" fill="#006CB3"/>
<path d="M54.4436 48.412C53.6349 49.2262 53.9203 53.0575 55.395 52.8181C57.0601 52.5307 58.2969 53.3449 58.9629 52.8181C59.6289 52.2913 60.3425 50.1361 59.8192 49.1783C59.4386 48.4599 58.3921 48.1247 57.5833 48.0289C56.8698 47.981 54.9193 47.9331 54.4436 48.412Z" fill="#006CB3"/>
<path d="M31.4739 54.3909C29.6515 52.2489 33.4441 49.4233 36.7442 49.0587C39.1577 48.7853 43.0488 49.4233 42.9995 51.8843C42.9995 54.3453 39.4532 53.7984 36.892 53.9807C35.4143 54.163 32.7546 55.8948 31.4739 54.3909Z" stroke="#484848" stroke-width="0.7" stroke-miterlimit="10" stroke-linecap="round" stroke-linejoin="round"/>
<path d="M52.2375 51.5624C51.0803 49.6713 54.359 47.5862 57.5893 48.0711C59.9037 48.4591 62.6037 50.2047 61.8805 51.9019C61.109 53.696 59.9519 52.7747 56.9143 52.6777C55.3715 52.6292 53.2018 53.1141 52.2375 51.5624Z" stroke="#484848" stroke-width="0.7" stroke-miterlimit="10" stroke-linecap="round" stroke-linejoin="round"/>
<path d="M48 46C48 46 53.4199 53.9254 53.9669 57.1051C54.4641 59.9525 49.1934 60 49.1934 60" stroke="#484848" stroke-width="0.7" stroke-miterlimit="10" stroke-linecap="round" stroke-linejoin="round"/>
<path d="M40 43.4455C40 43.4455 36.9668 42.5788 34.5498 43.2631C32.0379 43.9929 30 46 30 46" stroke="#484848" stroke-miterlimit="10" stroke-linecap="round" stroke-linejoin="round"/>
<path d="M62 45C62 45 60.4339 43.0435 58.5714 42.3727C56.328 41.5342 54 42.3727 54 42.3727" stroke="#484848" stroke-miterlimit="10" stroke-linecap="round" stroke-linejoin="round"/>
<path d="M14 56C14 56 16.9328 56.6154 18.2617 59.1209C19.5906 61.6264 18.7199 64 18.7199 64" stroke="#484848" stroke-width="0.7" stroke-miterlimit="10" stroke-linecap="round" stroke-linejoin="round"/>
<path d="M15 62C15 62 15.2264 58.9474 17 58" stroke="#484848" stroke-width="0.7" stroke-miterlimit="10" stroke-linecap="round" stroke-linejoin="round"/>
<path d="M34 57V60" stroke="#484848" stroke-width="0.7" stroke-miterlimit="10" stroke-linecap="round" stroke-linejoin="round"/>
<path d="M31 57L30 59" stroke="#484848" stroke-width="0.7" stroke-miterlimit="10" stroke-linecap="round" stroke-linejoin="round"/>
<path d="M59 57L60 59" stroke="#484848" stroke-width="0.7" stroke-miterlimit="10" stroke-linecap="round" stroke-linejoin="round"/>
<path d="M62 56L63 58" stroke="#484848" stroke-width="0.7" stroke-miterlimit="10" stroke-linecap="round" stroke-linejoin="round"/>
<path d="M19.4617 20.0401C35.2812 8.17691 52.6498 15.1913 53.2131 9.40091C53.26 9.11845 54.2928 9.82458 54.3866 11.0015C54.4805 11.9901 54.105 12.555 54.105 12.555C54.105 12.555 56.3582 13.2611 58.2359 11.7076C60.2075 10.107 60.3483 7 60.3483 7C60.3483 7 63.3056 8.08277 63.1648 11.6606C63.0709 14.2968 61.4749 14.6735 61.4749 15.0501C64.5731 15.2384 67.1079 13.167 68.0468 11.6606C68.3754 11.1427 69.8306 13.4965 69.0326 16.5565C68.1407 19.8518 65.5119 19.8518 65.5119 19.8518C65.5119 19.8518 66.5916 20.6992 68.3754 20.3226C70.6755 19.8518 70.7225 17.7805 70.8164 18.4866C71.6613 23.1001 69.3612 26.0659 68.5631 26.772C68.5631 26.772 68.5631 26.7721 68.5631 26.8191C70.4408 32.3271 68.2815 43.4841 67.2488 48.0976C66.0283 53.6526 65.2772 54.9707 65.2772 54.9707C64.9486 55.3003 65.1364 52.8052 65.6527 49.557C66.1222 46.7324 67.061 40.6125 67.061 40.6125C67.061 40.6125 67.6243 32.7507 63.822 31.4326C59.1278 29.832 54.1989 33.9747 47.6739 34.0218C41.9939 34.0689 35.6567 27.0074 26.0336 35.5282C21.4333 39.5768 20.3536 42.2131 20.3536 42.2131C20.3536 42.2131 21.5 54.5292 21.5 55C21.5 55.4708 18 49.5 13 52C12.9529 51.107 13.0307 50.0748 12.4204 44.3315C11.1999 32.4683 12.3735 25.3127 19.4617 20.0401Z" fill="#2290D8"/>
<path d="M58.0649 86.0222C53.5166 88.5665 39.4927 88.1825 36.6026 87.4624C27.885 85.206 20.9678 74.0204 21.0152 65.5232C21.0152 64.7551 20.9204 60.0504 21.2047 60.4345C24.9002 65.5232 29.5906 69.8918 29.6854 69.2678C30.4434 63.747 32.8123 62.7388 36.8395 61.3946C40.2507 60.1944 46.2677 62.1147 48.6367 61.8747C51.5267 61.5866 51.2424 61.3946 53.7535 60.3865C56.2645 59.3783 59.7231 60.3385 61.4287 63.3149C62.092 64.4671 62.5658 65.9553 62.8501 67.5875C63.087 69.0277 66.4982 58.8022 66.9246 60.2905C70.6201 73.9724 64.0819 82.6617 58.0649 86.0222ZM58.3018 63.1228C56.7383 61.5386 52.0952 63.5549 49.6789 63.843C45.8413 64.275 40.6297 62.4988 38.4503 63.6029C35.9867 64.8511 35.7498 72.5802 38.4503 74.6445C44.1357 78.9651 55.1748 76.5648 57.3542 74.6445C59.5336 72.7242 59.8179 64.7071 58.3018 63.1228Z" fill="#2290D8"/>
</svg>
