<svg width="80" height="94" viewBox="0 0 80 94" fill="none" xmlns="http://www.w3.org/2000/svg">
<path d="M16.182 56.4308C16.182 56.4308 13.319 52.6547 10.4559 52.6547C7.59292 52.6547 1.38969 57.3748 5.20706 65.3991C9.02443 73.4234 16.0388 69.9777 16.0388 69.9777C16.0388 69.9777 17.3272 75.2643 19.7131 78.474C23.5304 83.6662 32.6921 89 41.7584 89C50.8246 89 56.1689 85.6959 59.032 80.2205C66.9053 65.0687 61.0838 58.7909 61.561 54.5427C62.0381 50.2946 63.8991 40.4766 63.9945 35.7564C64.1854 25.8913 59.4137 17.4894 44.526 16.4037C31.9764 15.4597 18.5201 14.9877 12.126 29.1954C6.59086 41.4207 16.182 56.4308 16.182 56.4308Z" fill="white" stroke="#484848" stroke-width="0.7" stroke-miterlimit="10" stroke-linecap="round" stroke-linejoin="round"/>
<path d="M36 66.852C36 66.852 38.3161 66.3321 44.0136 66.1155C50.5913 65.8556 53 66.1155 53 66.1155C53 66.1155 51.2861 74 44.2916 74C36.5095 74 36 66.852 36 66.852Z" stroke="#484848" stroke-width="0.7" stroke-miterlimit="10" stroke-linecap="round" stroke-linejoin="round"/>
<path d="M38.5937 57.2016C39.7741 55.3068 38.5937 49.5198 32.2372 50.0319C31.7832 50.0832 31.7832 54.1289 34.0534 56.6895C35.4155 58.2259 37.8218 58.4307 38.5937 57.2016Z" fill="#484848"/>
<path d="M57.9241 55.2079C58.3704 53.7753 56.8975 49 52.2112 49C51.8095 49 51.8095 52.5815 53.7733 54.8259C54.9338 56.163 57.567 56.4495 57.9241 55.2079Z" fill="#484848"/>
<path d="M43 49C43 49 48.467 56.4448 48.9724 59.5819C49.4318 62.3913 44.0107 63 44.0107 63" stroke="#484848" stroke-width="0.7" stroke-miterlimit="10" stroke-linecap="round" stroke-linejoin="round"/>
<path d="M35 44.2679C35 44.2679 32.9429 43.709 31.16 44.2058C28.6914 44.9509 27 47 27 47" stroke="#484848" stroke-width="0.7" stroke-miterlimit="10" stroke-linecap="round" stroke-linejoin="round"/>
<path d="M57 46C57 46 55.1257 44.366 53.0229 44.0842C50.5086 43.7462 49 44.535 49 44.535" stroke="#484848" stroke-width="0.7" stroke-miterlimit="10" stroke-linecap="round" stroke-linejoin="round"/>
<path d="M9 57C9 57 12.5193 57.6923 14.114 60.511C15.7087 63.3297 14.6639 66 14.6639 66" stroke="#484848" stroke-width="0.7" stroke-miterlimit="10" stroke-linecap="round" stroke-linejoin="round"/>
<path d="M11 63C11 63 11.2264 60.7105 13 60" stroke="#484848" stroke-width="0.7" stroke-miterlimit="10" stroke-linecap="round" stroke-linejoin="round"/>
<path d="M30 61V63" stroke="#484848" stroke-width="0.7" stroke-miterlimit="10" stroke-linecap="round" stroke-linejoin="round"/>
<path d="M27 60L26 62" stroke="#484848" stroke-width="0.7" stroke-miterlimit="10" stroke-linecap="round" stroke-linejoin="round"/>
<path d="M55 60L56 62" stroke="#484848" stroke-width="0.7" stroke-miterlimit="10" stroke-linecap="round" stroke-linejoin="round"/>
<path d="M57 59L59 61" stroke="#484848" stroke-width="0.7" stroke-miterlimit="10" stroke-linecap="round" stroke-linejoin="round"/>
<path d="M11.5662 22.9719C11.5662 22.9719 15.5566 16.5234 33.8652 15.4878C37.527 15.2995 41.8929 13.9345 44.1932 11.2515C46.7752 8.28612 46.3996 5.97969 46.071 4.09689C45.9771 3.48498 49.6388 5.79141 49.8736 10.4513C50.0613 14.5935 46.7282 16.0056 46.7282 16.0056C46.7282 16.0056 49.1694 16.0527 50.4369 15.0171C53.3475 12.7107 51.7044 8.28611 51.7044 8.28611C51.7044 8.28611 55.0845 8.14491 56.1642 13.7933C56.2581 14.2169 56.3051 14.6406 56.3051 15.0171C58.7932 14.6406 61.0935 11.8634 61.1874 10.0748C61.2343 9.46287 64.2388 12.0988 63.206 16.6175C62.408 20.1007 60.0607 21.2774 60.0607 21.2774C60.0607 21.2774 61.2343 21.4186 62.9244 20.6655C66.3044 19.1593 65.5533 14.2169 65.5533 14.2169C65.5533 14.2169 68.1353 15.0642 67.9944 20.8067C67.9006 25.4666 65.2247 28.1496 64.4735 28.8086C64.4735 28.8086 64.4735 28.8086 64.4735 28.8557C66.3514 34.3629 64.1919 45.5184 63.1591 50.1313C61.9385 55.6855 61.5 57.5 61.5 57.5C61.1714 57.8295 60.4836 55.2949 61 52C61.4695 49.1758 62.5 41.5 62.5 41.5C62.5 41.5 64.1449 35.5396 59.3096 34.0334C54.5681 32.5271 51.0003 35.775 46.2118 35.2572C41.1887 34.7394 31.2832 27.8201 23.772 39.4935C20.4389 44.6241 16.3077 44.2946 16.3077 44.2946C16.3077 44.2946 17 57.5293 17 58C17 58.4707 14.6759 54.659 12 54C10.4508 53.6234 8.11029 53.6057 7.5 54.5C7.35916 54.6883 6.59002 50.8844 6.12057 44.1063C5.51028 34.0804 7.20031 27.7731 11.5662 22.9719Z" fill="#2290D8"/>
<path d="M38.304 56.9672C40.2004 55.0147 38.304 49.3475 31.5969 50.0619C26.5088 50.5857 24.8899 55.0623 26.7401 56.9672C28.5903 58.8721 31.3194 57.5863 32.7533 57.4434C34.8348 57.2053 37.1476 58.1578 38.304 56.9672Z" stroke="#484848" stroke-width="0.7" stroke-miterlimit="10"/>
<path d="M57.1149 55.7502C59.4347 54.8836 57.0202 48.721 51.9071 49.0098C47.6935 49.2506 45.9418 54.0169 47.6461 55.7502C48.1196 56.2316 50.1554 55.8946 51.4336 55.7502C55.2211 55.2687 55.9786 56.1353 57.1149 55.7502Z" stroke="#484848" stroke-width="0.7" stroke-miterlimit="10"/>
<path d="M53.2258 88.7579C53.7583 88.0992 54.5328 84.6739 53.4678 85.0252C52.8869 85.2009 50.6118 86.5183 45.8194 86.9135C41.2691 87.2648 37.3481 85.9474 37.106 86.167C36.6704 86.6061 37.6869 89.1531 38.171 89.8118C38.5583 90.2949 40.1073 91.217 46.0615 90.9536C50.3213 90.6901 52.8869 89.1531 53.2258 88.7579Z" fill="#2290D8"/>
</svg>
