<svg width="80" height="94" viewBox="0 0 80 94" fill="none" xmlns="http://www.w3.org/2000/svg">
<path d="M20.4183 56.4097C20.4183 56.4097 17.5666 52.6312 14.7148 52.6312C11.8631 52.6312 7.7281 56.3153 11.5304 64.3447C15.3327 72.3742 21.1788 69.6348 21.1788 69.6348C21.1788 69.6348 22.7472 74.1218 25.1712 77.3336C30.637 84.6546 37.6237 88.9528 47.0344 89C53.6884 89 60.5325 82.1041 63.3843 76.2473C66.6162 69.6348 67.2341 62.4555 65.5706 54.5677C65.3329 53.5758 67.8995 40.4925 67.9946 35.7692C68.1847 25.8977 63.4318 17.4903 48.6028 16.404C36.1028 15.4593 22.6997 14.987 16.3308 29.2039C10.865 41.3899 20.4183 56.4097 20.4183 56.4097Z" fill="white" stroke="#484848" stroke-width="0.7" stroke-miterlimit="10" stroke-linecap="round" stroke-linejoin="round"/>
<path d="M48.1394 48C48.1394 48 53.2052 54.5238 53.9488 57.619C54.6459 60.4286 48 61 48 61" stroke="#484848" stroke-width="0.7" stroke-miterlimit="10" stroke-linecap="round" stroke-linejoin="round"/>
<path d="M41 43.9275C41 43.9275 37.8872 43 36.0827 43C32.0677 43 29 47 29 47" stroke="#484848" stroke-miterlimit="10" stroke-linecap="round" stroke-linejoin="round"/>
<path d="M63 44C63 44 61.7976 43.0293 58.1457 43.0008C55.1619 42.9722 52 43.7431 52 43.7431" stroke="#484848" stroke-miterlimit="10" stroke-linecap="round" stroke-linejoin="round"/>
<path d="M14 57C14 57 16.9328 57.6154 18.2617 60.1209C19.5906 62.6264 18.7199 65 18.7199 65" stroke="#484848" stroke-width="0.7" stroke-miterlimit="10" stroke-linecap="round" stroke-linejoin="round"/>
<path d="M15 63C15 63 15 61 17.5 59.5" stroke="#484848" stroke-width="0.7" stroke-miterlimit="10" stroke-linecap="round" stroke-linejoin="round"/>
<path d="M32 60V63" stroke="#484848" stroke-width="0.7" stroke-miterlimit="10" stroke-linecap="round" stroke-linejoin="round"/>
<path d="M29 59L28 61" stroke="#484848" stroke-width="0.7" stroke-miterlimit="10" stroke-linecap="round" stroke-linejoin="round"/>
<path d="M59 60L60 62" stroke="#484848" stroke-width="0.7" stroke-miterlimit="10" stroke-linecap="round" stroke-linejoin="round"/>
<path d="M61 59L63 61" stroke="#484848" stroke-width="0.7" stroke-miterlimit="10" stroke-linecap="round" stroke-linejoin="round"/>
<path d="M19.4408 19.5388C35.2667 7.23511 52.6423 14.5033 53.2059 8.51773C53.2528 8.2327 54.286 8.94527 54.3799 10.1804C54.4738 11.178 54.0981 11.748 54.0981 11.748C54.0981 11.748 56.3523 12.4606 58.2307 10.8454C60.2031 9.18279 60.344 6 60.344 6C60.344 6 63.3025 7.09259 63.1616 10.8454C63.0677 13.5532 61.471 13.9807 61.471 14.3608C64.5705 14.5508 67.1064 12.4131 68.0456 10.8454C68.3743 10.3229 69.8301 12.7456 69.0318 15.8809C68.1395 19.2537 65.5097 19.3012 65.5097 19.3012C65.5097 19.3012 66.5898 20.1563 68.3743 19.7763C70.6754 19.3012 70.7224 17.1635 70.8163 17.8761C71.6616 22.6265 69.3605 25.7618 68.5622 26.4269C68.5622 26.4269 68.5622 26.4269 68.5622 26.4744C70.4406 32.1749 68.2804 43.766 67.2472 48.5164C66.0263 54.2645 65.2749 55.6421 65.2749 55.6421C64.9462 55.9746 65.134 53.4094 65.6506 50.0366C66.1202 47.0913 67.0594 40.7732 67.0594 40.7732C67.0594 40.7732 67.8108 33.9326 64.0069 32.6025C59.3108 30.9398 55.7887 34.0751 49.2611 34.1226C43.5788 34.1701 36.4877 26.5219 26.8607 35.3577C22.2585 39.5856 20.3331 42.4834 20.3331 42.4834C20.3331 42.4834 21 57.525 21 58C21 58.475 16.6701 51.6517 13.5237 53.3619C13.4298 53.4094 13.0071 50.6066 12.3966 44.6686C11.2226 32.4124 12.3966 25.0018 19.4408 19.5388Z" fill="#2290D8"/>
<path d="M56.9815 72.7393C58.4687 70.7897 58.7085 66.1015 55.0626 65.6373C52.568 65.3124 51.4167 66.7514 48.4903 66.5193C43.5491 66.1015 41.6302 62.2488 38.1761 63.1308C35.0579 63.9199 34.2903 67.1227 35.6336 70.372C36.4491 72.3679 39.6153 75.3851 45.8038 75.8957C51.7045 76.4527 55.4944 74.6888 56.9815 72.7393Z" stroke="#484848" stroke-width="0.7" stroke-miterlimit="10"/>
<path d="M58 69.5373C58 69.5373 55.4061 71.8327 49.5459 71.9928C41.524 72.2597 35.5 65 35.5 65" stroke="#484848" stroke-width="0.7" stroke-miterlimit="10"/>
<path d="M55.5 74C58.9166 71.3406 58.1485 65.0801 53.9998 65.5L55.5 74Z" fill="#484848"/>
<path d="M33.1785 49.4156C32.5208 50.519 33.7857 54.5816 35.253 53.9296C36.9733 53.1271 38.8454 53.7791 39.4019 53.0769C39.9585 52.3748 40.3632 49.4156 39.5031 48.5128C38.896 47.8608 37.0745 47.9611 36.1637 48.1116C35.506 48.2119 33.5833 48.7636 33.1785 49.4156Z" fill="#006CB3"/>
<path d="M54.4436 48.412C53.6349 49.2262 53.9203 53.0575 55.395 52.8181C57.0601 52.5307 58.2969 53.3449 58.9629 52.8181C59.6289 52.3392 60.3425 50.1361 59.8192 49.1783C59.4386 48.4599 58.3921 48.1247 57.5833 48.0289C56.8698 47.981 54.9193 47.9331 54.4436 48.412Z" fill="#006CB3"/>
<path d="M31.4739 53.3909C29.6515 51.2489 33.4441 48.4233 36.7442 48.0587C39.1577 47.7853 43.0488 48.4233 42.9995 50.8843C42.9503 53.3453 39.5612 53.2086 37 53.3909C35.4731 53.5732 32.7546 54.8948 31.4739 53.3909Z" stroke="#484848" stroke-width="0.7" stroke-miterlimit="10" stroke-linecap="round" stroke-linejoin="round"/>
<path d="M52.2375 51.5624C51.0803 49.6713 54.3589 47.5862 57.5893 48.0711C59.9037 48.4591 62.6037 50.2047 61.8805 51.9019C61.109 53.696 59.9519 52.7747 56.9143 52.6777C55.3714 52.6292 53.2018 53.1141 52.2375 51.5624Z" stroke="#484848" stroke-width="0.7" stroke-miterlimit="10" stroke-linecap="round" stroke-linejoin="round"/>
</svg>
