<svg width="80" height="94" viewBox="0 0 80 94" fill="none" xmlns="http://www.w3.org/2000/svg">
<path d="M22.1433 54.9605C22.1433 54.9605 19.3454 51.1349 16.5476 51.1349C13.7498 51.1349 8.57379 54.8171 12.3042 62.9465C16.0347 71.0759 21.8169 67.9676 21.8169 67.9676C21.8169 67.9676 23.2624 73.6104 26.2468 77.6273C30.1171 82.7918 37.951 87 46.8108 87C55.6706 87 64.6237 80.1139 67.0485 74.1842C71.9913 62.277 65.9293 55.5822 66.3957 53.0477C67.1884 48.7917 68.6806 38.7973 68.7738 34.0153C68.9603 24.0209 64.2973 15.5089 49.7485 14.409C37.4847 13.4526 24.3349 12.9744 18.0864 27.3683C12.7705 39.8015 22.1433 54.9605 22.1433 54.9605Z" fill="white" stroke="#484848" stroke-width="0.7" stroke-miterlimit="10" stroke-linecap="round" stroke-linejoin="round"/>
<path d="M46.6802 45L26 45.5228C26 45.5228 26.5278 61.2073 39.4349 58.7358C49.3192 56.8822 46.6802 45 46.6802 45Z" stroke="#484848" stroke-width="1.5" stroke-miterlimit="10"/>
<path d="M51.5 49H47" stroke="#484848" stroke-width="1.5" stroke-miterlimit="10" stroke-linecap="round" stroke-linejoin="round"/>
<path d="M58 65C58 65 55.2048 66.8849 50.1446 66.9958C45.0843 67.1066 42 65 42 65" stroke="#484848" stroke-width="0.7" stroke-miterlimit="10" stroke-linecap="round" stroke-linejoin="round"/>
<path d="M34.1785 49.4156C33.5208 50.519 34.7857 54.5816 36.253 53.9296C37.9733 53.1271 39.8454 53.7791 40.4019 53.0769C40.9585 52.3748 41.3632 49.4156 40.5031 48.5128C39.896 47.8608 38.0745 47.9611 37.1637 48.1116C36.506 48.2119 34.5833 48.7636 34.1785 49.4156Z" fill="#006CB3"/>
<path d="M55.4436 48.412C54.6349 49.2262 54.9203 53.0575 56.395 52.8181C58.0601 52.5307 59.2969 53.3449 59.9629 52.8181C60.6289 52.3392 61.3425 50.1361 60.8192 49.1783C60.4386 48.4599 59.3921 48.1247 58.5833 48.0289C57.8698 47.981 55.9193 47.9331 55.4436 48.412Z" fill="#006CB3"/>
<path d="M32.4739 53.3909C30.6515 51.2489 34.4441 48.4233 37.7442 48.0587C40.1577 47.7853 44.0488 48.4233 43.9995 50.8843C43.9503 53.3453 40.5612 53.2086 38 53.3909C36.4731 53.5732 33.7546 54.8948 32.4739 53.3909Z" stroke="#484848" stroke-width="0.7" stroke-miterlimit="10" stroke-linecap="round" stroke-linejoin="round"/>
<path d="M53.2375 51.5624C52.0803 49.6713 55.3589 47.5862 58.5893 48.0711C60.9037 48.4591 63.6037 50.2047 62.8805 51.9019C62.109 53.696 60.9519 52.7747 57.9143 52.6777C56.3714 52.6292 54.2018 53.1141 53.2375 51.5624Z" stroke="#484848" stroke-width="0.7" stroke-miterlimit="10" stroke-linecap="round" stroke-linejoin="round"/>
<path d="M49 46C49 46 54.4343 53.5973 54.968 56.7509C55.4532 59.6178 50.2615 60 50.2615 60" stroke="#484848" stroke-width="0.7" stroke-miterlimit="10" stroke-linecap="round" stroke-linejoin="round"/>
<path d="M41 43.1786C41 43.1786 38.6857 42.806 36.68 43.1372C33.9029 43.6339 32 45 32 45" stroke="#484848" stroke-miterlimit="10" stroke-linecap="round" stroke-linejoin="round"/>
<path d="M63.5 43.5C63.5 43.5 60.8914 42.366 58.5257 42.0842C55.6971 41.7461 54 42.535 54 42.535" stroke="#484848" stroke-miterlimit="10" stroke-linecap="round" stroke-linejoin="round"/>
<path d="M15 55C15 55 17.9328 55.6923 19.2617 58.511C20.5906 61.3297 19.7199 64 19.7199 64" stroke="#484848" stroke-width="0.7" stroke-miterlimit="10" stroke-linecap="round" stroke-linejoin="round"/>
<path d="M16 62C16 62 16.3396 58.9474 19 58" stroke="#484848" stroke-width="0.7" stroke-miterlimit="10" stroke-linecap="round" stroke-linejoin="round"/>
<path d="M35 59V61" stroke="#484848" stroke-width="0.7" stroke-miterlimit="10" stroke-linecap="round" stroke-linejoin="round"/>
<path d="M32 58L31 61" stroke="#484848" stroke-width="0.7" stroke-miterlimit="10" stroke-linecap="round" stroke-linejoin="round"/>
<path d="M60 58L61 60" stroke="#484848" stroke-width="0.7" stroke-miterlimit="10" stroke-linecap="round" stroke-linejoin="round"/>
<path d="M63 57L64 59" stroke="#484848" stroke-width="0.7" stroke-miterlimit="10" stroke-linecap="round" stroke-linejoin="round"/>
<path d="M21.7213 13.4969C39.9603 4.80908 53.3014 13.5446 53.8612 7.53C53.9078 7.24358 54.9807 7.95961 55.074 9.20073C55.1673 10.2032 54.7941 10.776 54.7941 10.776C54.7941 10.776 57.0799 11.492 58.9924 9.86901C60.9982 8.19827 61.1382 5 61.1382 5C61.1382 5 64.1702 6.09792 64.0303 9.86901C63.937 12.5899 62.3043 13.0196 62.351 13.4014C65.4763 13.5924 68.0886 11.4443 69.0215 9.86901C69.3481 9.34392 70.8408 11.7784 70.0011 14.929C69.1148 18.3182 66.4093 18.3659 66.4093 18.3659C66.4093 18.3659 67.4822 19.2251 69.3014 18.8432C71.6338 18.3659 71.6804 16.2178 71.8204 16.9338C72.66 21.7074 70.3276 24.8102 69.5346 25.5262C69.5346 25.5262 69.5346 25.5262 69.5346 25.5739C72.2868 31.6841 71.074 41.2788 69.2081 46.1479C67.109 51.6374 66.4559 54.5015 66.4559 54.5015C66.0828 54.8357 65.3469 53.2234 66 49.5C66.5131 46.5881 67.5 40 67.5 40C67.5 40 68.695 32.1614 64.8233 30.8248C60.0186 29.1541 56.5667 33.1639 49.9428 33.2116C44.1586 33.2593 34.4093 26.4332 26.6659 34.8823C22.421 39.5604 20.4618 41.613 20.4618 41.613C20.4618 41.613 22.5 54.5226 22.5 55C22.5 55.4774 18.0828 47.6277 12.4385 52.9263C12.3452 53.0217 11.0857 49.012 10.0129 43.0928C8.66009 35.5029 7.40062 28.0562 15.1441 24.667C15.1441 24.7147 14.3044 17.0293 21.7213 13.4969Z" fill="#2290D8"/>
<path d="M60.4692 87.9401C55.6213 90.5868 40.6936 90.2087 37.6217 89.4052C28.3099 87.0893 20.966 75.5099 21.014 66.7189C21.014 65.9154 20.918 61.0473 21.206 61.4254C25.1419 66.7189 30.1338 71.2089 30.2298 70.5472C31.0458 64.8284 33.5898 63.8358 37.8617 62.3707C41.5096 61.1418 47.8935 63.1269 50.3894 62.8906C53.5093 62.607 53.1254 62.3707 55.8133 61.3782C58.5012 60.3856 62.1492 61.3309 64.0211 64.403C64.7411 65.5846 65.2211 67.1443 65.5091 68.8457C65.7491 70.3582 69.068 59.9876 69.5 61.5C73.4839 75.7262 66.8531 84.4426 60.4692 87.9401ZM60.6612 64.2612C59.0292 62.607 54.0853 64.7339 51.4934 65.0174C47.4135 65.4901 41.8936 63.6468 39.5416 64.7811C36.9017 66.0572 36.6617 74.0447 39.5416 76.2188C45.5895 80.7088 57.3493 78.2039 59.6532 76.2188C62.0052 74.1865 62.3412 65.9154 60.6612 64.2612Z" fill="#2290D8"/>
<path d="M26.5 50.5L21 53" stroke="#484848" stroke-width="1.5" stroke-miterlimit="10" stroke-linecap="round" stroke-linejoin="round"/>
<path d="M70.9409 43L51 44.6626C51 44.6626 51.6158 56.5453 60.1415 56.9854C72.4566 57.5233 70.9409 43 70.9409 43Z" stroke="#484848" stroke-width="1.5" stroke-miterlimit="10"/>
</svg>
