<svg width="80" height="94" viewBox="0 0 80 94" fill="none" xmlns="http://www.w3.org/2000/svg">
<path d="M22.1994 54.9298C22.1994 54.9298 19.3775 51.1536 16.5556 51.1536C13.7337 51.1536 8.56023 55.5906 12.3228 63.6149C16.0853 71.6392 22.0583 68.4767 22.0583 68.4767C22.0583 68.4767 24.504 74.1881 26.8556 77.3978C30.6181 82.59 38.4724 87.499 47.4085 87.499C56.3445 87.499 61.4239 82.354 64.528 77.0674C71.5 58.999 66.4093 57.2899 66.8796 53.0417C67.3499 48.7936 67.9143 38.5508 68.0084 33.8306C68.1965 23.9654 64.8102 15.9883 50.0893 14.9027C37.7199 13.9587 24.457 13.4867 18.1547 27.6944C12.7461 39.9196 22.1994 54.9298 22.1994 54.9298Z" fill="white" stroke="#484848" stroke-width="0.7" stroke-miterlimit="10" stroke-linecap="round" stroke-linejoin="round"/>
<path d="M50 46.499C50 46.499 55.467 53.9438 55.9724 57.0809C56.4318 59.8903 51.0107 60.499 51.0107 60.499" stroke="#484848" stroke-width="0.7" stroke-miterlimit="10" stroke-linecap="round" stroke-linejoin="round"/>
<path d="M45 40.4754C45 40.4754 42.8251 39.4519 38.6236 39.5007C35.9049 39.5494 32 41.499 32 41.499" stroke="#484848" stroke-miterlimit="10" stroke-linecap="round" stroke-linejoin="round"/>
<path d="M65 41.499C65 41.499 62.7436 39.5449 59.218 39.5004C55.7393 39.456 54 40.4331 54 40.4331" stroke="#484848" stroke-miterlimit="10" stroke-linecap="round" stroke-linejoin="round"/>
<path d="M15 55.499C15 55.499 17.9328 56.1913 19.2617 59.01C20.5906 61.8287 19.7199 64.499 19.7199 64.499" stroke="#484848" stroke-width="0.7" stroke-miterlimit="10" stroke-linecap="round" stroke-linejoin="round"/>
<path d="M17 61.499C17 61.499 17.2264 59.2095 19 58.499" stroke="#484848" stroke-width="0.7" stroke-miterlimit="10" stroke-linecap="round" stroke-linejoin="round"/>
<path d="M35 55.499L34 57.499" stroke="#484848" stroke-width="0.7" stroke-miterlimit="10" stroke-linecap="round" stroke-linejoin="round"/>
<path d="M32 54.499L31 55.499" stroke="#484848" stroke-width="0.7" stroke-miterlimit="10" stroke-linecap="round" stroke-linejoin="round"/>
<path d="M61 54.499L62 56.499" stroke="#484848" stroke-width="0.7" stroke-miterlimit="10" stroke-linecap="round" stroke-linejoin="round"/>
<path d="M64 53.499L65 55.499" stroke="#484848" stroke-width="0.7" stroke-miterlimit="10" stroke-linecap="round" stroke-linejoin="round"/>
<path d="M68 59.5114C67.5211 58.0083 69.035 68.154 64.5335 69.9389C64.1504 70.0798 64.2941 67.3555 63.6715 65.4767C62.5222 62.0948 60.0321 61.0614 57.6856 61.4372C54.8602 61.8599 53.9982 62.6584 50.8855 62.9402C48.3953 63.1751 43.1756 59.0417 37.86 60.075C34.1248 60.7796 31.0121 64.7721 31.7783 71.5829C31.8741 72.2405 24.9304 64.7721 21.0514 59.5114C20.7641 59.1356 21.7698 67.4025 21.8655 68.201C22.4402 73.5087 29.4751 85.4568 39.5 88.499C46.0424 90.4843 53.0197 90.3475 58 87.999C63 84.999 71 67.0114 68 59.5114Z" fill="#2290D8"/>
<path d="M58.8916 73.0511C60.5079 70.9945 60.7388 65.9673 56.9521 65.4645C54.3661 65.0989 53.1655 66.6528 50.0715 66.3329C44.9457 65.8302 42.96 61.717 39.3581 62.631C36.1256 63.4536 35.2481 66.8356 36.6335 70.3547C37.4647 72.5026 40.7896 75.7475 47.2084 76.3873C53.3502 76.9815 57.2754 75.1076 58.8916 73.0511Z" fill="white" stroke="#484848" stroke-width="0.7" stroke-miterlimit="10"/>
<path d="M60 69.1156C60 69.1156 57.1509 71.351 50.7284 71.4968C41.9879 71.6425 36.5 64.999 36.5 64.999" stroke="#484848" stroke-width="0.7" stroke-miterlimit="10"/>
<path d="M57.9971 74.499C61.4465 71.5542 60.221 65.0853 56 65.5198L57.9971 74.499Z" fill="#484848"/>
<path d="M48 81.499C48.7792 80.2639 51 80.5212 51 80.5212" stroke="#484848" stroke-width="0.7" stroke-miterlimit="10" stroke-linecap="round" stroke-linejoin="round"/>
<path d="M44.1215 46.2239C44.1215 46.2239 40.3782 45.9106 37.8301 46.3651C35.238 46.8171 32.9689 48.5869 32.9689 48.5869" stroke="#484848" stroke-width="0.7" stroke-miterlimit="10" stroke-linecap="round" stroke-linejoin="round"/>
<path d="M42.1241 46.1038C42.1241 46.1038 42.0194 49.5019 40.4055 50.4872C39.0208 51.3562 37.4063 50.7902 36.6962 49.9741C35.9023 49.0671 36.0838 46.6644 36.0838 46.6644L38.7379 46.1694L42.1241 46.1038Z" fill="#484848"/>
<path d="M65.088 47.4127C65.088 47.4127 61.8984 46.3784 59.1542 46.0798C56.4073 45.8286 53.1182 46.541 53.1182 46.541" stroke="#484848" stroke-width="0.7" stroke-miterlimit="10" stroke-linecap="round" stroke-linejoin="round"/>
<path d="M62.1261 46.6558C62.1261 46.6558 61.9828 49.1699 60.5831 49.8344C59.2733 50.4627 58.1215 49.8595 57.6407 49.0465C57.0379 48.0611 57.1413 46.2476 57.1413 46.2476L59.7412 46.1063L62.1261 46.6558Z" fill="#484848"/>
<path d="M46.3492 42.2654L27.1898 42.2397C27.1898 42.2397 27.2835 56.9342 39.2954 54.9423C48.4487 53.4523 46.3492 42.2654 46.3492 42.2654Z" stroke="#484848" stroke-width="1.3" stroke-miterlimit="10"/>
<path d="M51.0698 45.2861L46.5267 45.6091" stroke="#484848" stroke-width="1.3" stroke-miterlimit="10" stroke-linecap="round" stroke-linejoin="round"/>
<path d="M27.7007 46.3938L19.5001 51.499" stroke="#484848" stroke-width="1.3" stroke-miterlimit="10" stroke-linecap="round" stroke-linejoin="round"/>
<path d="M20.5001 12.499C16.5001 15.0002 18.0001 19.5002 18.0001 19.5002C10.5001 20.5002 11.9372 31.4739 13.0446 41.6677C13.6705 48.0564 14.3074 51.5929 14.5 51.499C18.5 49.499 21.0482 53.9687 21 53.499C20.9519 53.0292 25 37.499 25 37.499C25 37.499 23.5 28.6174 29 27.0582C36.3428 24.9765 41.7797 28.499 50 28.499C56 28.499 58.1556 24.4018 63.5 25.999C68.8444 27.5961 67.5962 33.999 67.5962 33.999C67.5962 33.999 66.0555 47.6336 67.5962 48.1504C67.5962 48.1504 67.9333 42.3723 68.9925 36.7822C70.0518 30.9572 68.5001 23.499 68.5001 23.499C69.4001 22.2655 70.3606 18.7898 68.5001 15.9991C66.5001 12.9991 65.0001 12.499 62.5001 12.499C63.0001 9.99906 60.5001 8.00024 58.5001 7.50024C55.4322 6.73328 53.5001 7.50024 51.5001 9.50016C51.1667 8.00015 49.025 5 44.0001 5C40.5001 5 37.5001 7.50017 37.5001 9.50021C35.5001 8.00024 34.9875 6.91901 31.5001 7.50024C28.5001 8.00024 27.5 10.0002 27.5 12.499C25.5001 11.499 22.396 11.3135 20.5001 12.499Z" fill="#2290D8"/>
<path d="M69.4079 41.1494L50.6652 42.1588C50.6652 42.1588 50.9518 52.9852 58.9371 53.6008C70.4294 54.3997 69.4079 41.1494 69.4079 41.1494Z" stroke="#484848" stroke-width="1.3" stroke-miterlimit="10"/>
</svg>
