<svg width="80" height="94" viewBox="0 0 80 94" fill="none" xmlns="http://www.w3.org/2000/svg">
<path d="M20.8477 56.021C20.8477 56.021 17.7295 51.1446 14.6342 50.1084C9.43392 48.3676 7.41202 53.7349 10.5073 63.0602C13.2071 71.1942 21.3406 67.7229 21.3406 67.7229C21.3406 67.7229 23.8587 74.138 26.5124 77.3716C32.4986 84.7439 40.1087 88.1811 50.0181 87.9452C57.0237 87.744 62.2015 80.6839 65.4689 74.5547C69.0687 67.8318 68.7846 61.1176 66.7836 53.0468C66.502 52.0327 69.3816 38.1757 69.3307 33.2612C69.2185 23.0918 64.9507 14.5994 49.2538 13.9307C36.0634 13.3361 21.9372 13.2551 15.6818 28.0852C10.2643 40.847 20.8477 56.021 20.8477 56.021Z" fill="white" stroke="#484848" stroke-miterlimit="10" stroke-linecap="round" stroke-linejoin="round"/>
<path d="M59.0754 64.2223C59.0754 64.2223 56.4863 63.6133 50.0401 63.3596C42.5899 63.0551 39.8951 63.3596 39.8951 63.3596C39.8951 63.3596 41.8501 72.4946 49.7231 72.4946C58.4942 72.4439 59.0754 64.2223 59.0754 64.2223Z" stroke="#484848" stroke-width="0.7" stroke-miterlimit="10"/>
<path d="M50.7455 45.9639C50.7455 45.9639 55.7206 53.6648 56.0604 56.8435C56.3693 59.7333 51.77 59.3417 51.77 59.3417" stroke="#484848" stroke-width="0.7" stroke-miterlimit="10" stroke-linecap="round" stroke-linejoin="round"/>
<path d="M43.6248 41.2382C43.6248 41.2382 39.8952 40.5634 35.1002 41.0784C33.0887 41.2944 31.3707 42.1084 31.3707 42.1084" stroke="#484848" stroke-width="1.5" stroke-miterlimit="10" stroke-linecap="round" stroke-linejoin="round"/>
<path d="M65.469 41.5934C65.469 41.5934 63.8706 40.5634 60.6739 40.5634C57.4772 40.5634 54.8133 41.0784 54.8133 41.0784" stroke="#484848" stroke-width="1.5" stroke-miterlimit="10" stroke-linecap="round" stroke-linejoin="round"/>
<path d="M13.2559 56.014C13.2559 56.014 16.381 56.6478 17.797 59.2286C19.2131 61.8094 18.2853 64.2543 18.2853 64.2543" stroke="#484848" stroke-width="0.7" stroke-miterlimit="10" stroke-linecap="round" stroke-linejoin="round"/>
<path d="M14.3215 62.1942C14.3215 62.1942 14.5628 59.0499 16.4526 58.0741" stroke="#484848" stroke-width="0.7" stroke-miterlimit="10" stroke-linecap="round" stroke-linejoin="round"/>
<path d="M33.5017 56.014L32.4361 59.1041" stroke="#484848" stroke-width="0.7" stroke-miterlimit="10" stroke-linecap="round" stroke-linejoin="round"/>
<path d="M30.3049 56.014L29.2394 58.0741" stroke="#484848" stroke-width="0.7" stroke-miterlimit="10" stroke-linecap="round" stroke-linejoin="round"/>
<path d="M62.2723 56.014L63.3379 58.0741" stroke="#484848" stroke-width="0.7" stroke-miterlimit="10" stroke-linecap="round" stroke-linejoin="round"/>
<path d="M64.4033 54.9839L66.5344 57.044" stroke="#484848" stroke-width="0.7" stroke-miterlimit="10" stroke-linecap="round" stroke-linejoin="round"/>
<path d="M20.8248 10.2169C18.2454 11.253 18.2455 14.8795 18.2455 14.8795C10.5073 17.988 12.055 29.9036 12.7231 37.4733C13.2018 42.8985 13.399 49.694 13.6027 49.5904C18.2455 50.6265 21.2986 56.5324 21.2477 56.014C21.1968 55.4956 22.7694 51.6641 22.3133 44.1685C21.2477 26.6565 28.4811 26.1428 33.5018 25.6278C41.5793 24.7992 41.3225 26.6565 50.0182 26.6565C56.3652 26.6565 59.5639 24.08 64.3812 26.6565C69.1985 29.2329 68.6657 35.4132 68.6657 35.4132C68.6657 35.4132 65.4375 52.3536 67.0674 52.9239C67.0674 52.9239 69.0708 44.7262 70.1913 38.5569C71.763 29.9036 68.6658 21.6145 68.6658 21.6145C69.6178 20.2532 70.1338 16.146 68.8011 14.3614C67.2535 12.2892 65.19 11.7579 63.3234 11.7579C63.1265 8.66265 60.5471 6.59036 58.4836 6.24121C54.9188 5.63802 53.3249 6.59036 51.7773 8.14458C50.7455 6.24121 49.3547 4 44.0392 4C40.3368 4 37.3328 6.07229 36.817 7.62651C35.7852 6.59036 34.7535 6.07229 32.1741 6.24121C29.5619 6.41227 27.0153 7.93455 27.0153 10.6922C24.9518 9.6988 23.4042 9.18072 20.8248 10.2169Z" fill="#006CB3"/>
<path d="M34.7576 47.9587C34.0567 48.9059 35.6678 52.9685 37.2313 52.4088C39.0644 51.72 40.428 52.4088 41.3891 51.1015C41.9821 50.4988 42.4134 47.9587 41.4969 47.1838C40.8499 46.6241 38.909 46.7102 37.9386 46.8394C37.1838 46.9255 35.135 47.3991 34.7576 47.9587Z" fill="#484848"/>
<path d="M57.4172 46.138C56.5554 46.9766 56.8596 50.923 58.431 50.6764C60.2052 50.3804 61.5231 51.219 62.2328 50.6764C62.9425 50.1338 63.7028 47.9139 63.1452 46.9273C62.7397 46.1873 61.6245 45.842 60.7628 45.7433C60.0024 45.694 57.9241 45.6447 57.4172 46.138Z" fill="#484848"/>
<path d="M32.9413 52.2965C30.9994 50.0901 35.0406 47.1797 38.5571 46.8041C41.1289 46.5225 45.2751 47.1797 45.2227 49.7146C45.2227 52.2495 41.4438 51.6862 38.7146 51.874C37.1401 52.0617 34.3059 53.8456 32.9413 52.2965Z" stroke="#484848" stroke-width="0.7" stroke-miterlimit="10" stroke-linecap="round" stroke-linejoin="round"/>
<path d="M55.0663 49.383C53.8333 47.4351 57.3269 45.2874 60.7691 45.7869C63.2352 46.1864 66.1123 47.9845 65.3416 49.7327C64.5196 51.5807 63.2866 50.6317 60.0498 50.5318C58.4058 50.4819 56.0938 50.9813 55.0663 49.383Z" stroke="#484848" stroke-width="0.7" stroke-miterlimit="10" stroke-linecap="round" stroke-linejoin="round"/>
</svg>
