<svg width="80" height="94" viewBox="0 0 80 94" fill="none" xmlns="http://www.w3.org/2000/svg">
<path d="M20.8477 56.0209C20.8477 56.0209 17.7295 51.1446 14.6342 50.1084C9.43391 48.3676 7.41202 53.7349 10.5073 63.0602C13.2071 71.1942 21.3406 67.7229 21.3406 67.7229C21.3406 67.7229 23.8587 74.138 26.5124 77.3715C32.4986 84.7439 41.5906 88.2359 51.5 88C59.9819 88 62.1544 81.3637 65.4689 74.5547C69.1496 66.9933 69.3307 58.5 66.7836 53.0467C66.502 52.0327 69.3816 38.1757 69.3307 33.2612C69.2185 23.0918 64.9507 14.5994 49.2538 13.9307C36.0634 13.3361 21.9372 13.2551 15.6818 28.0852C10.2643 40.847 20.8477 56.0209 20.8477 56.0209Z" fill="white" stroke="#484848" stroke-miterlimit="10" stroke-linecap="round" stroke-linejoin="round"/>
<path d="M50.7455 45.9638C50.7455 45.9638 55.5 53 56.5 56.5C56.8089 59.3897 51 59 51 59" stroke="#484848" stroke-width="0.7" stroke-miterlimit="10" stroke-linecap="round" stroke-linejoin="round"/>
<path d="M43.6248 42.6748C43.6248 42.6748 39.7951 40.985 35 41.5C32.9885 41.716 31.3707 43.545 31.3707 43.545" stroke="#484848" stroke-width="1.5" stroke-miterlimit="10" stroke-linecap="round" stroke-linejoin="round"/>
<path d="M65.469 43.03C65.469 43.03 63.8706 42 60.6739 42C57.4772 42 54.8133 42.515 54.8133 42.515" stroke="#484848" stroke-width="1.5" stroke-miterlimit="10" stroke-linecap="round" stroke-linejoin="round"/>
<path d="M13.2559 56.014C13.2559 56.014 16.381 56.6478 17.797 59.2286C19.2131 61.8093 18.2853 64.2543 18.2853 64.2543" stroke="#484848" stroke-width="0.7" stroke-miterlimit="10" stroke-linecap="round" stroke-linejoin="round"/>
<path d="M14.3215 62.1942C14.3215 62.1942 14.5628 59.0499 16.4526 58.0741" stroke="#484848" stroke-width="0.7" stroke-miterlimit="10" stroke-linecap="round" stroke-linejoin="round"/>
<path d="M34.0657 57L33.0001 60.0901" stroke="#484848" stroke-width="0.7" stroke-miterlimit="10" stroke-linecap="round" stroke-linejoin="round"/>
<path d="M30.3049 56.014L29.2394 58.074" stroke="#484848" stroke-width="0.7" stroke-miterlimit="10" stroke-linecap="round" stroke-linejoin="round"/>
<path d="M62.2723 56.014L63.3379 58.074" stroke="#484848" stroke-width="0.7" stroke-miterlimit="10" stroke-linecap="round" stroke-linejoin="round"/>
<path d="M64.4033 54.9839L66.5344 57.044" stroke="#484848" stroke-width="0.7" stroke-miterlimit="10" stroke-linecap="round" stroke-linejoin="round"/>
<path d="M67.5 29C67.5 29 68.4513 30.5495 68.3094 37.353C68.2621 40.5436 66.2904 48.7317 67 51.5C67.2838 52.6261 71.8097 43.922 71.7624 36.5085C71.7151 27.9219 70.4999 25 70.4999 25C70.4999 25 74.9999 19 71.7624 9.99999C68 1.99999 59.3146 0.796335 48.5 3.5C34.5 7 30.5 15.9841 18.5949 17.787C12.3983 18.7255 8.94526 14.8779 8.80335 15.441C5.49221 27.6873 13.4863 34.9601 13.4863 34.9601C11.7361 41.6228 13 49.5 13 49.5C18.4394 50.056 21 56.4692 21 56C21 55.5308 21.433 38.4322 21.433 38.4322C21.433 38.4322 31.7922 40.5436 41.3472 34.7255C44.6445 32.7223 53 29 56.5 29.5C57 32.5 56 33.5 55 35C60 35 64.5 32 67.5 29Z" fill="#006CB3"/>
<path d="M34.7576 47.9587C34.0567 48.9059 35.6678 52.9685 37.2313 52.4088C39.0644 51.72 40.428 52.4088 41.3891 51.1015C41.9821 50.4988 42.4134 47.9587 41.4969 47.1838C40.8499 46.6241 38.909 46.7102 37.9386 46.8394C37.1838 46.9255 35.135 47.3991 34.7576 47.9587Z" fill="#484848"/>
<path d="M57.4172 46.1379C56.5554 46.9766 56.8596 50.923 58.431 50.6764C60.2052 50.3804 61.5231 51.219 62.2328 50.6764C62.9425 50.1337 63.7028 47.9139 63.1452 46.9273C62.7397 46.1873 61.6245 45.842 60.7628 45.7433C60.0024 45.694 57.9241 45.6446 57.4172 46.1379Z" fill="#484848"/>
<path d="M32.9413 52.2964C30.9994 50.0901 35.0406 47.1797 38.5571 46.8041C41.1289 46.5225 45.2751 47.1797 45.2227 49.7146C45.2227 52.2495 41.4438 51.6862 38.7146 51.8739C37.1401 52.0617 34.3059 53.8456 32.9413 52.2964Z" stroke="#484848" stroke-width="0.7" stroke-miterlimit="10" stroke-linecap="round" stroke-linejoin="round"/>
<path d="M55.0663 49.383C53.8333 47.4351 57.3269 45.2874 60.7691 45.7868C63.2352 46.1864 66.1123 47.9845 65.3416 49.7327C64.5196 51.5807 63.2866 50.6317 60.0498 50.5318C58.4058 50.4819 56.0938 50.9813 55.0663 49.383Z" stroke="#484848" stroke-width="0.7" stroke-miterlimit="10" stroke-linecap="round" stroke-linejoin="round"/>
<path d="M60 64C60 64 57.2048 65.8849 52.1446 65.9958C45.5 66.1414 44.5 62.5 44.5 62.5" stroke="#484848" stroke-width="0.7" stroke-miterlimit="10" stroke-linecap="round" stroke-linejoin="round"/>
<path d="M42.4805 61.1647C42.4805 61.1647 41.8709 61.1834 41.4074 62.1261C41.0619 62.8288 41.0985 63.9755 41.0985 63.9755" stroke="#484848" stroke-width="0.7" stroke-miterlimit="10" stroke-linecap="round" stroke-linejoin="round"/>
</svg>
