<svg width="80" height="94" viewBox="0 0 80 94" fill="none" xmlns="http://www.w3.org/2000/svg">
<path d="M8.02605 19.6917C13.3545 11.6857 27.8114 11.4773 35.7457 17.322C47.4363 25.9338 43.7077 50.6501 33.6857 65.2814C24.1262 79.2375 3.52019 68.1709 4.00853 67.0019C4.49687 65.8329 6.79424 66.2118 7.52292 62.9554C9.35391 54.7728 -0.0240264 31.7869 8.02605 19.6917Z" fill="#006CB3"/>
<path d="M31.0127 67.5911L30.9216 67.9291L31.0127 67.5911L31.0125 67.5911L31.0116 67.5908L31.0075 67.5897L30.9908 67.5852L30.9239 67.5667C30.8649 67.5502 30.7774 67.5255 30.6646 67.4928C30.439 67.4275 30.1123 67.3305 29.7096 67.204C28.9039 66.9509 27.7954 66.5803 26.584 66.1103C24.1459 65.1643 21.3479 63.8366 19.7362 62.2844L19.7357 62.284C17.4527 60.0927 16.347 56.471 16.3965 53.1635C16.4212 51.5148 16.7332 49.9692 17.3102 48.7419C17.8873 47.5144 18.7161 46.6304 19.7657 46.2444L19.7666 46.2441C21.2603 45.6901 22.541 45.7015 23.6343 46.0396C24.7334 46.3794 25.6679 47.0573 26.4482 47.874C28.0147 49.5135 28.9121 51.6615 29.2312 52.5313L29.8913 52.2986C28.3252 47.668 27.0589 40.628 28.229 34.1772C29.395 27.748 32.971 21.9257 41.0962 19.6042C51.5335 16.6221 58.7927 17.7566 63.5566 20.5691C68.3239 23.3836 70.6447 27.9081 71.1529 31.8128L71.1551 31.8298L71.159 31.8464C71.6263 33.8696 72.0693 38.3096 72.428 42.3667C72.528 43.4981 72.6204 44.5867 72.705 45.5831C72.7724 46.3771 72.8348 47.1126 72.8922 47.7645C72.9563 48.4933 73.0134 49.1096 73.0625 49.5671C73.0871 49.7956 73.1099 49.9873 73.1309 50.1349C73.1501 50.2693 73.1719 50.4007 73.2009 50.4839L73.2022 50.4875C73.2395 50.5911 73.2794 50.7002 73.3212 50.8147C74.2338 53.314 76.0906 58.399 73.8518 66.1151L73.8513 66.1171C73.0524 68.9326 71.2243 73.3105 68.6481 77.0223C66.0588 80.7531 62.7857 83.7086 59.1216 83.8816L59.1211 83.8816C49.6688 84.3419 42.7011 80.3195 38.0862 76.1694C35.7782 74.0939 34.0619 71.9888 32.9231 70.4032C32.3538 69.6106 31.9294 68.9486 31.648 68.4859C31.5073 68.2546 31.4024 68.0732 31.333 67.9503C31.2983 67.8889 31.2725 67.8421 31.2555 67.811L31.2368 67.7763L31.2324 67.768L31.2314 67.7662L31.2313 67.766L31.2312 67.7659L31.1601 67.6309L31.0127 67.5911Z" fill="white" stroke="#484848" stroke-width="0.7"/>
<path d="M20.5322 51.1011C20.5322 51.1011 23.4151 51.1011 25.2359 53.3916C27.0062 55.7366 26.7533 58.4633 26.7533 58.4633" stroke="#484848" stroke-width="0.7" stroke-miterlimit="10" stroke-linecap="round" stroke-linejoin="round"/>
<path d="M56.0095 57.9375C58.6389 58.4633 62.7372 57.7317 63 56.2677C63.6541 52.6238 58.6389 51.1011 58.6389 44.2647" stroke="#484848" stroke-width="0.7" stroke-miterlimit="10" stroke-linecap="round" stroke-linejoin="round"/>
<path d="M41.7188 55.3081L40.7593 57.18" stroke="#484848" stroke-width="0.7" stroke-miterlimit="10" stroke-linecap="round" stroke-linejoin="round"/>
<path d="M44.0874 56.3598L43.7072 58.6749" stroke="#484848" stroke-width="0.7" stroke-miterlimit="10" stroke-linecap="round" stroke-linejoin="round"/>
<path d="M39.2329 46.8941L41.8302 49.5235" stroke="#484848" stroke-width="0.7" stroke-miterlimit="10" stroke-linecap="round" stroke-linejoin="round"/>
<path d="M42.3496 46.8941L43.3885 47.9459" stroke="#484848" stroke-width="0.7" stroke-miterlimit="10" stroke-linecap="round" stroke-linejoin="round"/>
<path d="M71.4396 46.8941L70.4006 47.9459" stroke="#484848" stroke-width="0.7" stroke-miterlimit="10" stroke-linecap="round" stroke-linejoin="round"/>
<path d="M69.3617 44.7906L68.3228 46.8941" stroke="#484848" stroke-width="0.7" stroke-miterlimit="10" stroke-linecap="round" stroke-linejoin="round"/>
<path d="M68.1047 54.2563L69.1437 55.3081" stroke="#484848" stroke-width="0.7" stroke-miterlimit="10" stroke-linecap="round" stroke-linejoin="round"/>
<path d="M71.2598 53.2046L72.2987 54.2563" stroke="#484848" stroke-width="0.7" stroke-miterlimit="10" stroke-linecap="round" stroke-linejoin="round"/>
<path d="M63 41.3194C63 41.3194 66.0408 40.3546 68.0679 40.2719C70.0951 40.2168 71.3114 40.713 71.3114 40.713" stroke="#484848" stroke-width="0.7" stroke-miterlimit="10" stroke-linecap="round" stroke-linejoin="round"/>
<path d="M52.2379 42.6769C52.2379 42.6769 47.8024 41.0041 44.5744 40.9597C41.2902 40.9101 39.2657 42.5372 39.2657 42.5372" stroke="#484848" stroke-width="0.7" stroke-miterlimit="10" stroke-linecap="round" stroke-linejoin="round"/>
<path d="M44.6226 47.9933C43.3884 49.5235 44.6412 53.264 45.9872 52.6787C47.5126 52.0484 49.6046 52.7832 50.143 52.1528C50.6814 51.5225 51.1804 48.9976 50.2758 47.408C49.7374 46.7777 48.1222 46.8677 47.3146 46.9578C46.6865 47.0028 44.9816 47.408 44.6226 47.9933Z" fill="#484848"/>
<path d="M62.515 46.2298C61.7386 47.0676 62.0126 51.0099 63.4283 50.7635C65.0266 50.4678 66.488 51.4534 67.1273 50.9606C67.7666 50.4678 68.6799 48.201 68.1776 47.2154C67.8123 46.4762 66.3053 45.9834 65.529 45.8848C64.8896 45.8356 63.0173 45.737 62.515 46.2298Z" fill="#484848"/>
<path d="M41.7483 52.4881C39.9646 50.1236 43.9908 47.2172 47.4054 46.9216C49.9026 46.7246 53.8779 47.562 53.7759 50.2221C53.674 52.8822 50.0046 52.1433 47.4054 52.2911C45.8255 52.3896 43.0224 54.163 41.7483 52.4881Z" stroke="#484848" stroke-width="0.7" stroke-miterlimit="10" stroke-linecap="round" stroke-linejoin="round"/>
<path d="M60.258 49.5891C59.0558 47.6002 62.462 45.4072 65.8181 45.9172C68.2225 46.3252 71.0276 48.1612 70.2763 49.9462C69.4748 51.8331 68.2726 50.8641 65.1168 50.7621C63.5139 50.7111 61.2598 51.2211 60.258 49.5891Z" stroke="#484848" stroke-width="0.7" stroke-miterlimit="10" stroke-linecap="round" stroke-linejoin="round"/>
<path d="M55.7996 12.5C48.5 11.5 35.4999 11.5 28 17.5C20.5001 23.5 19.5 29.0277 19.5 33.7677C19.5 41.2677 20 43.2677 20.5 45.7677C22 45.2677 25.5 44.7677 29.5001 51.7677C30.4157 53.37 29.5001 53.2677 33.6412 53.0604C33.6412 53.0604 29.6071 42.0236 33.6412 34C37.6754 25.9764 47.8892 28.8831 55.7996 28.8831C62.3848 27.9197 64.9701 26.8255 68.5 29.5C72.0569 32.195 72 41.2677 72 41.2677C72 41.2677 72.6854 50.33 73 50C73 50 74.1937 49.5737 74 48C72.8683 38.806 75.1574 34.9762 73 25.5L72.9895 25.4739C70.4944 19.2536 68.4823 14.2374 55.7996 12.5Z" fill="#2290D8"/>
<circle cx="28" cy="63.2677" r="2" fill="#FF6CA1"/>
<path d="M66 63.5534C66 63.5534 63.295 65.169 58.398 65.264C51.9677 65.3888 51 62.2677 51 62.2677" stroke="#484848" stroke-width="0.7" stroke-miterlimit="10" stroke-linecap="round" stroke-linejoin="round"/>
</svg>
