<svg width="80" height="94" viewBox="0 0 80 94" fill="none" xmlns="http://www.w3.org/2000/svg">
<path d="M20.4183 54.7491C20.4183 54.7491 17.5665 51.1258 14.7148 51.1258C11.8631 51.1258 7.72809 54.6585 11.5304 62.358C15.3327 70.0575 21.1788 67.4306 21.1788 67.4306C21.1788 67.4306 22.7472 71.7333 25.1712 74.8131C30.637 81.8332 37.6237 85.9547 47.0344 86C53.6884 86 60.5325 79.3875 63.3843 73.7714C66.6162 67.4306 67.2341 60.5463 65.5706 52.9827C65.3329 52.0316 67.8995 39.4859 67.9946 34.9568C68.1847 25.4909 63.4318 17.4291 48.6028 16.3874C36.1028 15.4816 22.6997 15.0287 16.3308 28.6613C10.865 40.3464 20.4183 54.7491 20.4183 54.7491Z" fill="white" stroke="#484848" stroke-width="0.7" stroke-miterlimit="10" stroke-linecap="round" stroke-linejoin="round"/>
<path d="M66.509 60.8895C66.0572 59.5442 66.542 68.1884 62.2949 69.7859C61.9335 69.912 62.069 67.4737 61.4817 65.7921C60.3973 62.7653 58.0479 61.8404 55.834 62.1767C53.1683 62.5551 53.9075 63.522 49.4183 63.522C45.1718 63.522 44.6984 61.2519 39.6833 62.1767C33.6957 64.2872 37.1884 73.2595 36.6894 73.4197C33.6957 74.381 23.2175 66.2098 21.2218 59C20.7228 63.522 21.2218 66.2098 21.2218 68.6131C22.7186 73.9004 29.6588 83.4126 41.1801 86.3974C44.0717 87.1541 48.9552 87.5381 53.654 85.4361C60.4312 82.3672 69.1747 69.0031 66.509 60.8895Z" fill="#2290D8"/>
<path d="M48.4998 47.5C48.4998 47.5 53.7562 56.4048 54.4998 59.5C55.5 63.6625 46.4999 60.5 46.4999 60.5" stroke="#484848" stroke-width="0.7" stroke-miterlimit="10" stroke-linecap="round" stroke-linejoin="round"/>
<path d="M40.5903 43.4203C40.5903 43.4203 37.7651 42.2706 35.9698 42.4517C31.975 42.8548 30.2008 45.044 30.2008 45.044" stroke="#484848" stroke-miterlimit="10" stroke-linecap="round" stroke-linejoin="round"/>
<path d="M62.9015 44.2448C62.9015 44.2448 62.1952 42.9426 58.5697 42.5039C55.608 42.1403 53.9586 43.2335 53.9586 43.2335" stroke="#484848" stroke-miterlimit="10" stroke-linecap="round" stroke-linejoin="round"/>
<path d="M14 57C14 57 16.9328 57.6154 18.2617 60.1209C19.5906 62.6264 18.7199 65 18.7199 65" stroke="#484848" stroke-width="0.7" stroke-miterlimit="10" stroke-linecap="round" stroke-linejoin="round"/>
<path d="M15 63C15 63 15 61 17.5 59.5" stroke="#484848" stroke-width="0.7" stroke-miterlimit="10" stroke-linecap="round" stroke-linejoin="round"/>
<path d="M32 60V63" stroke="#484848" stroke-width="0.7" stroke-miterlimit="10" stroke-linecap="round" stroke-linejoin="round"/>
<path d="M29 59L28 61" stroke="#484848" stroke-width="0.7" stroke-miterlimit="10" stroke-linecap="round" stroke-linejoin="round"/>
<path d="M59 60L60 62" stroke="#484848" stroke-width="0.7" stroke-miterlimit="10" stroke-linecap="round" stroke-linejoin="round"/>
<path d="M61 59L63 61" stroke="#484848" stroke-width="0.7" stroke-miterlimit="10" stroke-linecap="round" stroke-linejoin="round"/>
<path d="M19 18C34.8259 5.69636 52.6422 14.5033 53.2058 8.51773C53.2527 8.2327 54.2859 8.94527 54.3798 10.1804C54.4737 11.178 54.098 11.748 54.098 11.748C54.098 11.748 56.1868 12.252 57.5 11.5C58.6868 10.752 59 8.5 59 8.5C59 8.5 61 10.5 61 12C61 13.5 60.5 13.62 60.5 14C63.5994 14.19 65.5607 13.0676 66.4999 11.5C66.8286 10.9775 68.8162 13.9591 67.9999 16C66.9999 18.5 65.5096 19.3012 65.5096 19.3012C65.5096 19.3012 65.7154 19.88 67.4999 19.5C68.9998 19.5 69.9059 17.7874 69.9998 18.5C70.8451 23.2504 69.2981 24.8349 68.4998 25.5C70.3782 31.2005 68.2803 43.766 67.2471 48.5164C66.0261 54.2645 65.6505 53.3619 65.6505 53.3619C65.3217 53.6944 65.1339 53.4094 65.6505 50.0366C66.1201 47.0913 67.0593 40.7732 67.0593 40.7732C67.0593 40.7732 66.9654 27.757 63.1615 26.4269C58.4654 24.7642 58.9999 32 50.9999 32C37.9738 32 33.4999 18.8012 25.4999 29.5C21.7611 34.5 20.333 42.4834 20.333 42.4834C20.333 42.4834 20.9999 54.5 20.9999 57C20.9999 55.4501 17.4999 51.3369 13.5236 51.3369C13.4297 51.3844 13 46.5 12.4999 40.7732C11.7377 32.0453 11.9558 23.463 19 18Z" fill="#2290D8"/>
<path d="M33.1785 49.4156C32.5208 50.519 33.7857 54.5816 35.253 53.9296C36.9733 53.1271 38.8454 53.7791 39.4019 53.0769C39.9585 52.3748 40.3632 49.4156 39.5031 48.5128C38.896 47.8608 37.0745 47.9611 36.1637 48.1116C35.506 48.2119 33.5833 48.7636 33.1785 49.4156Z" fill="#484848"/>
<path d="M54.4436 48.412C53.6349 49.2262 53.9203 53.0575 55.395 52.8181C57.0601 52.5307 58.2969 53.3449 58.9629 52.8181C59.6289 52.3392 60.3425 50.1361 59.8192 49.1783C59.4386 48.4599 58.3921 48.1247 57.5833 48.0289C56.8698 47.981 54.9193 47.9331 54.4436 48.412Z" fill="#484848"/>
<path d="M31.4739 53.3909C29.6515 51.2489 33.4441 48.4233 36.7442 48.0587C39.1577 47.7853 43.0488 48.4233 42.9995 50.8843C42.9503 53.3453 39.5612 53.2086 37 53.3909C35.4731 53.5732 32.7546 54.8948 31.4739 53.3909Z" stroke="#484848" stroke-width="0.7" stroke-miterlimit="10" stroke-linecap="round" stroke-linejoin="round"/>
<path d="M52.2375 51.5624C51.0803 49.6713 54.3589 47.5862 57.5893 48.0711C59.9037 48.4591 62.6037 50.2047 61.8805 51.9019C61.109 53.696 59.9519 52.7747 56.9143 52.6777C55.3714 52.6292 53.2018 53.1141 52.2375 51.5624Z" stroke="#484848" stroke-width="0.7" stroke-miterlimit="10" stroke-linecap="round" stroke-linejoin="round"/>
<path d="M55 67C55 67 52.2369 68.21 47.5261 67.968C42.8153 67.7663 42 65.5 42 65.5" stroke="white" stroke-width="0.7" stroke-miterlimit="10" stroke-linecap="round" stroke-linejoin="round"/>
</svg>