<svg width="80" height="94" viewBox="0 0 218 257" fill="none" xmlns="http://www.w3.org/2000/svg">
<path d="M73.3288 166.107C73.3288 166.107 95.9051 212.632 143.706 210.338C162.877 209.446 177.255 180.001 181.291 165.98C186.962 146.715 182.246 133.981 179.949 127.779C179.844 127.498 179.745 127.23 179.652 126.975C179.542 126.663 179.821 125.231 180.256 123.002C182.309 112.48 187.829 84.1851 172.234 71.9219C167.951 66.7277 157.936 69.033 145.717 71.8456C130.949 75.245 112.961 79.3855 97.9838 71.9219C97.9838 71.9219 81.7838 88.1346 83.1338 113.805C84.2135 134.335 70.0495 135.388 70.1756 132.966C70.1756 132.966 62.8604 109.512 45.0769 116.013C33.4734 120.219 32.8428 145.713 44.6985 156.93C53.0227 164.833 73.3288 166.107 73.3288 166.107Z" fill="white"/>
<path d="M162.784 156.46C162.784 156.46 155.48 160.825 142.258 161.082C124.897 161.419 122.284 152.986 122.284 152.986" stroke="#484848" stroke-width="2" stroke-miterlimit="10" stroke-linecap="round" stroke-linejoin="round"/>
<path d="M46.0581 125.964C46.0581 125.964 53.459 125.964 58.1333 131.849C62.6777 137.874 62.0285 144.879 62.0285 144.879" stroke="#484848" stroke-width="2" stroke-miterlimit="10" stroke-linecap="round" stroke-linejoin="round"/>
<path d="M143.167 112.454C143.167 112.454 147.042 126.263 148.979 131.077C151.259 136.778 152.741 139.692 152.741 142.86C152.741 146.027 145.446 149.067 139.405 146.787" stroke="#484848" stroke-width="2" stroke-miterlimit="10" stroke-linecap="round" stroke-linejoin="round"/>
<path fill-rule="evenodd" clip-rule="evenodd" d="M198.855 161.092C197.23 143.528 191.134 115.156 191.134 115.156C191.134 115.156 201.934 86.7835 192.484 61.1133C182.933 35.169 145.056 13.8261 106.084 23.2835C76.3836 32.741 73.3286 48.9537 73.3286 48.9537C73.3286 48.9537 50.7336 48.9537 37.2337 70.5707C21.4681 88.9259 12.2501 135.251 22.005 184.06C26.0553 204.326 31.8335 228.645 42.6335 232.698C53.4336 236.752 78.2752 235.655 112.455 235.401C146.635 235.146 174.934 232.698 174.934 232.698C188.434 228.645 202.23 197.571 198.855 161.092ZM73.3286 166.107C73.3286 166.107 95.9049 212.632 143.706 210.338C162.877 209.446 177.255 180.001 181.291 165.98C186.962 146.715 182.245 133.981 179.948 127.779C179.844 127.498 179.745 127.23 179.652 126.975C179.541 126.663 179.821 125.231 180.256 123.002C182.309 112.48 187.829 84.185 172.234 71.9218C167.951 66.7276 157.936 69.033 145.717 71.8456C130.948 75.245 112.961 79.3854 97.9837 71.9218C97.9837 71.9218 81.7837 88.1345 83.1337 113.805C84.2134 134.335 70.0494 135.388 70.1755 132.966C70.1755 132.966 62.8603 109.512 45.0767 116.013C33.4733 120.219 32.8427 145.713 44.6984 156.93C53.0226 164.833 73.3286 166.107 73.3286 166.107Z" fill="#006CB3"/>
<path d="M94.0654 115.156L100.733 121.911" stroke="#484848" stroke-width="2" stroke-miterlimit="10" stroke-linecap="round" stroke-linejoin="round"/>
<path d="M102.066 115.156L104.733 117.858" stroke="#484848" stroke-width="2" stroke-miterlimit="10" stroke-linecap="round" stroke-linejoin="round"/>
<path d="M176.745 115.156L174.078 117.858" stroke="#484848" stroke-width="2" stroke-miterlimit="10" stroke-linecap="round" stroke-linejoin="round"/>
<path d="M171.411 109.752L168.744 115.156" stroke="#484848" stroke-width="2" stroke-miterlimit="10" stroke-linecap="round" stroke-linejoin="round"/>
<path d="M153.684 101.611C153.684 101.611 161.783 100.395 166.955 101.007C172.116 101.688 174.999 103.439 174.999 103.439" stroke="#484848" stroke-width="3" stroke-miterlimit="10" stroke-linecap="round" stroke-linejoin="round"/>
<path d="M125.086 101.576C125.086 101.576 115.377 98.8877 108.702 99.9151C101.909 100.949 98.2758 105.803 98.2758 105.803" stroke="#484848" stroke-width="3" stroke-miterlimit="10" stroke-linecap="round" stroke-linejoin="round"/>
<path d="M107.902 117.98C104.734 121.911 107.95 131.521 111.405 130.017C115.321 128.398 120.692 130.286 122.074 128.666C123.456 127.047 124.737 120.56 122.415 116.476C121.033 114.857 116.886 115.088 114.813 115.319C113.2 115.435 108.824 116.476 107.902 117.98Z" fill="#484848"/>
<path d="M153.834 113.449C151.841 115.602 152.545 125.73 156.179 125.097C160.282 124.337 164.034 126.87 165.675 125.604C167.316 124.337 169.661 118.513 168.371 115.981C167.433 114.082 163.565 112.816 161.572 112.563C159.931 112.436 155.124 112.183 153.834 113.449Z" fill="#484848"/>
<path d="M100.523 129.528C95.9435 123.453 106.279 115.986 115.045 115.226C121.456 114.72 131.661 116.872 131.399 123.706C131.138 130.54 121.718 128.642 115.045 129.022C110.989 129.275 103.793 133.831 100.523 129.528Z" stroke="#484848" stroke-width="2" stroke-miterlimit="10" stroke-linecap="round" stroke-linejoin="round"/>
<path d="M148.04 122.08C144.954 116.97 153.698 111.336 162.314 112.646C168.486 113.694 175.688 118.411 173.759 122.997C171.701 127.845 168.615 125.356 160.514 125.094C156.399 124.963 150.612 126.273 148.04 122.08Z" stroke="#484848" stroke-width="2" stroke-miterlimit="10" stroke-linecap="round" stroke-linejoin="round"/>
</svg>
