<svg width="80" height="94" viewBox="0 0 80 94" fill="none" xmlns="http://www.w3.org/2000/svg">
<path d="M21.6521 61.2373C21.6521 61.2373 18.5611 57.686 15.7512 57.9227C12.9413 58.1595 7.22787 63.3208 11.5832 71.0863C15.9386 78.8046 23.1038 74.4483 23.1038 74.4483C23.1038 74.4483 24.4151 79.1834 26.9909 82.2138C31.1121 87.091 39.9164 91.6367 48.8145 90.9264C57.6657 90.2162 63.426 85.7178 66.2827 80.0357C71.7621 69.3817 70.8254 59.3906 65.8144 55.2711C65.8144 55.2711 66.1891 41.9181 65.9549 37.183C65.3929 27.2866 60.9439 18.9528 46.2387 19.0002C33.8752 19.0476 20.6686 19.5684 15.5171 34.2946C11.1149 46.9847 21.6521 61.2373 21.6521 61.2373Z" fill="white" stroke="#484848" stroke-width="0.7" stroke-miterlimit="10" stroke-linecap="round" stroke-linejoin="round"/>
<path d="M49 52C49 52 54.2976 57.7986 54.9547 60.8381C55.5707 63.5971 49.6981 65 49.6981 65" stroke="#484848" stroke-width="0.7" stroke-miterlimit="10" stroke-linecap="round" stroke-linejoin="round"/>
<path d="M43 48.8703C43 48.8703 40.8571 46.765 37.9048 47.0217C35.2857 47.2271 32 50 32 50" stroke="#484848" stroke-miterlimit="10" stroke-linecap="round" stroke-linejoin="round"/>
<path d="M62 46.6919C62 46.6919 60.0597 44.7297 56.6269 45.0316C53.8905 45.2328 52 48 52 48" stroke="#484848" stroke-miterlimit="10" stroke-linecap="round" stroke-linejoin="round"/>
<path d="M13 62C13 62 16.2711 62.5128 17.9291 65.641C19.5871 68.7692 18.8253 72 18.8253 72" stroke="#484848" stroke-width="0.7" stroke-miterlimit="10" stroke-linecap="round" stroke-linejoin="round"/>
<path d="M15 69C15 69 15.5 66.5 17.5 65" stroke="#484848" stroke-width="0.7" stroke-miterlimit="10" stroke-linecap="round" stroke-linejoin="round"/>
<path d="M34.4485 59.615C33.1568 58.8126 34.4485 52.8181 41.0504 52.0629C48.0829 51.2605 47.6523 58.3878 45.9301 58.8126C43.6338 59.379 42.5335 58.5766 39.9979 59.2374C37.5102 59.8038 35.788 60.4175 34.4485 59.615Z" stroke="#484848" stroke-width="0.7" stroke-miterlimit="10" stroke-linecap="round" stroke-linejoin="round"/>
<path d="M37.9377 53.0177C37.6331 52.7913 35.197 54.784 34.501 56.3239C33.2829 58.9507 34.5445 59.8565 35.5451 59.9923C37.2416 60.2188 40.7653 55.3728 37.9377 53.0177Z" fill="#484848"/>
<path d="M53.3508 56.7651C52.2169 56.1001 53.7288 50.204 59.3986 51.0906C62.8949 51.6669 61.8555 55.7455 61.8555 55.7455C59.8711 56.1888 59.9183 56.0115 58.2646 56.2331C56.044 56.4991 54.532 57.4301 53.3508 56.7651Z" stroke="#484848" stroke-width="0.7" stroke-miterlimit="10" stroke-linecap="round" stroke-linejoin="round"/>
<path d="M56.9362 51.0193C56.6383 50.798 54.2053 52.5242 53.5101 53.852C52.2688 56.1093 53.5598 56.8617 54.5529 56.9945C56.2411 57.1716 59.7665 53.0111 56.9362 51.0193Z" fill="#484848"/>
<path d="M32 62L31 64" stroke="#484848" stroke-width="0.7" stroke-miterlimit="10" stroke-linecap="round" stroke-linejoin="round"/>
<path d="M30 61L28 62" stroke="#484848" stroke-width="0.7" stroke-miterlimit="10" stroke-linecap="round" stroke-linejoin="round"/>
<path d="M62 59L63 61" stroke="#484848" stroke-width="0.7" stroke-miterlimit="10" stroke-linecap="round" stroke-linejoin="round"/>
<path d="M64 58L66 60" stroke="#484848" stroke-width="0.7" stroke-miterlimit="10" stroke-linecap="round" stroke-linejoin="round"/>
<path d="M14.4901 30.6704C14.4901 30.6704 11.9327 23.8585 16.858 18.6908C19.6995 15.6842 26.4718 14.6976 34.0492 14.2748C37.98 14.0399 42.9526 12.9124 45.0838 10.0467C47.4517 6.85214 48.0674 4.92601 47.5938 3.09383C47.4517 2.53008 51.3351 4.5032 51.9034 9.10713C52.4244 13.1943 49.1566 14.8855 49.1566 14.8855C49.1566 14.8855 51.5719 14.7446 52.8506 13.6171C55.5974 11.0802 53.6083 6.80516 53.6083 6.80516C53.6083 6.80516 57.0181 6.42933 58.4863 11.9259C58.581 12.3487 58.6757 12.7245 58.7231 13.1473C61.1857 12.5836 63.3169 9.6239 63.2695 7.8387C63.2695 7.22797 66.4899 9.57692 65.8269 14.1809C65.3059 17.7043 63.0327 19.0667 63.0327 19.0667C63.0327 19.0667 64.264 19.1136 65.8742 18.268C69.1893 16.5298 68.0054 11.644 68.0054 11.644C68.0054 11.644 70.7048 12.3017 70.989 18.0331C71.2258 22.684 67.5791 26.2544 66.8688 27.0061C66.8688 27.0061 68.1001 37.7643 67.0582 43.5896C66.0163 49.1801 65.6848 54.9585 65.6848 54.9585C64.1693 54.4418 65.0218 43.2608 65.0218 43.2608C65.0218 43.2608 65.9689 35.4623 60.7121 33.865C56.5919 32.6436 53.7504 36.7307 48.8725 36.6368C43.8051 36.5428 37.98 30.1537 29.7869 40.536C26.1877 45.1399 21.878 45.046 21.878 45.046C21.878 45.046 21.215 60.502 21.2624 60.9718C21.3097 61.4416 17.3151 56.5269 14 58.5C13.8106 58.594 12.6431 54.8646 12.0274 48.4754C10.9382 38.281 9.61213 33.6301 14.4901 30.6704Z" fill="#2290D8"/>
<path d="M59.8916 75.3074C61.5079 73.1036 61.7388 67.7165 57.9521 67.1778C55.3661 66.786 54.1655 68.4511 51.0715 68.1083C45.9457 67.5696 43.96 63.162 40.3581 64.1415C37.1256 65.023 36.2481 68.647 37.6335 72.418C38.4647 74.7197 41.7896 78.1968 48.2084 78.8824C54.3502 79.5191 58.2754 77.4622 59.8916 75.3074Z" stroke="#484848" stroke-width="0.7" stroke-miterlimit="10"/>
<path d="M61 71.6166C61 71.6166 58.1509 73.852 51.7284 73.9978C42.9879 74.1436 37 67 37 67" stroke="#484848" stroke-width="0.7" stroke-miterlimit="10"/>
<path d="M58.9971 76C62.4465 73.0552 61.221 66.5864 57 67.0208L58.9971 76Z" fill="#484848"/>
<path d="M48.2907 86.0882C47.6201 85.2349 48.147 81.6081 49.4883 82.0348C51.0211 82.5681 52.6498 81.7147 53.2247 82.3014C53.7995 82.8881 54.3264 85.3416 53.7516 86.0882C53.3205 86.6749 51.8834 87.0483 51.117 86.9949C50.4942 86.9416 48.7218 86.5683 48.2907 86.0882Z" fill="#2290D8"/>
</svg>
