<svg width="80" height="94" viewBox="0 0 80 94" fill="none" xmlns="http://www.w3.org/2000/svg">
<path d="M19.9562 54.3522C19.9562 54.3522 17.1366 50.579 14.317 50.579C11.4973 50.579 6.60998 54.3994 10.3695 62.4175C14.129 70.4355 20.7081 67.5585 20.7081 67.5585C20.7081 67.5585 22.0709 72.1806 24.4206 75.435C28.1801 80.6232 35.9341 86 44.8629 86C53.7917 86 60.3708 82.2268 63.1904 76.567C65.8221 71.2845 68.3689 58.0467 65.5023 53C65.5023 53 67.9064 39.7165 68.0004 35C68.1884 25.1425 62.4855 15.4882 47.8235 14.4034C35.4641 13.4601 22.2119 12.9885 15.9147 27.1852C10.4635 39.3537 19.9562 54.3522 19.9562 54.3522Z" fill="white" stroke="#484848" stroke-width="0.7" stroke-miterlimit="10" stroke-linecap="round" stroke-linejoin="round"/>
<path d="M19.834 57C18.3173 57.231 18.9335 65.9635 21.1612 71.6927C24.8583 81.3492 30.3091 85.2765 34.3853 86.6164C41.1159 88.7879 49.1736 88.1411 55.0036 86.4778C64.5781 83.7518 66 65.178 66 64.0229C66 61.4355 60.3596 60.419 55.6672 61.4817C52.8707 62.0824 51.4961 62.8678 47.7043 63.0526C43.865 63.2837 39.6939 60.188 34.1483 63.1451C25.7588 67.5806 19.834 57 19.834 57Z" fill="#006CB3"/>
<path d="M42.304 54.9672C44.2004 53.0147 42.304 47.3475 35.5969 48.0619C30.5088 48.5857 28.8899 53.0623 30.7401 54.9672C32.5903 56.8721 35.3194 55.5863 36.7533 55.4434C38.8348 55.2053 41.1476 56.1578 42.304 54.9672Z" stroke="#484848" stroke-width="0.7" stroke-miterlimit="10"/>
<path d="M42.5356 55.2016C43.8847 53.3068 42.5356 47.5198 35.2711 48.0319C34.7523 48.0832 34.7523 52.1289 37.3467 54.6895C38.9034 56.2259 41.6535 56.4307 42.5356 55.2016Z" fill="#484848"/>
<path d="M61.1149 54.7502C63.4347 53.8836 61.0202 47.721 55.9071 48.0098C51.6935 48.2506 49.9418 53.0169 51.6461 54.7502C52.1196 55.2316 54.1554 54.8946 55.4336 54.7502C59.2211 54.2687 59.9786 55.1835 61.1149 54.7502Z" stroke="#484848" stroke-width="0.7" stroke-miterlimit="10"/>
<path d="M61.9114 54.2079C62.4321 52.7753 60.7138 48 55.2464 48C54.7778 48 54.7778 51.5815 57.0689 53.8259C58.3706 55.163 61.4428 55.4495 61.9114 54.2079Z" fill="#484848"/>
<path d="M45 47C45 47 51.3658 53.1846 51.9543 56.2308C52.4892 59 48.1562 59 48.1562 59" stroke="#484848" stroke-width="0.7" stroke-miterlimit="10" stroke-linecap="round" stroke-linejoin="round"/>
<path d="M42 44C42 44 40.1687 43.0782 38.241 43.0073C35.5904 42.9009 30 44 30 44" stroke="#484848" stroke-miterlimit="10" stroke-linecap="round" stroke-linejoin="round"/>
<path d="M61 43.0089C61 43.0089 56.1787 41.7025 54.0723 42.0629C51.0298 42.5584 50 44 50 44" stroke="#484848" stroke-miterlimit="10" stroke-linecap="round" stroke-linejoin="round"/>
<path d="M13 55C13 55 15.9328 55.6154 17.2617 58.1209C18.5906 60.6264 17.7199 63 17.7199 63" stroke="#484848" stroke-width="0.7" stroke-miterlimit="10" stroke-linecap="round" stroke-linejoin="round"/>
<path d="M15 61C15 61 15.2264 58.7105 17 58" stroke="#484848" stroke-width="0.7" stroke-miterlimit="10" stroke-linecap="round" stroke-linejoin="round"/>
<path d="M33 59V61" stroke="#484848" stroke-width="0.7" stroke-miterlimit="10" stroke-linecap="round" stroke-linejoin="round"/>
<path d="M30 58L29 60" stroke="#484848" stroke-width="0.7" stroke-miterlimit="10" stroke-linecap="round" stroke-linejoin="round"/>
<path d="M58 58L59 60" stroke="#484848" stroke-width="0.7" stroke-miterlimit="10" stroke-linecap="round" stroke-linejoin="round"/>
<path d="M61 57L62 59" stroke="#484848" stroke-width="0.7" stroke-miterlimit="10" stroke-linecap="round" stroke-linejoin="round"/>
<path d="M55 66C55 66 52.3795 67.8849 47.6356 67.9958C42.9368 68.1066 40 66 40 66" stroke="white" stroke-width="0.7" stroke-miterlimit="10" stroke-linecap="round" stroke-linejoin="round"/>
<path d="M16.2303 19.1188C20.9092 14.1934 26.6861 11.3992 37.9535 11.3045C49.1731 11.2098 52.8016 12.3464 54.1384 11.3045C57.0985 8.98394 55.4275 6.00032 55.4275 6.00032C55.4275 6.00032 58.865 5.85825 59.9631 11.5413C60.0586 11.9676 60.1063 12.3938 60.1063 12.7727C62.6367 12.3938 64.9761 9.5996 65.0716 7.79996C65.1193 7.1843 68.1749 9.8364 67.1246 14.3829C66.3129 17.8874 63.9258 19.0714 63.9258 19.0714C63.9258 19.0714 65.1193 19.2135 66.8381 18.4557C70.2756 16.9402 69.5117 11.9676 69.5117 11.9676C69.5117 11.9676 72.1376 12.82 71.9943 18.5978C71.8989 23.2863 69.1775 25.9858 68.4136 26.6488C68.4136 26.6488 68.4136 26.6488 68.4136 26.6962C70.3233 32.2372 68.1272 43.4613 67.0768 48.1024C65.8355 53.6908 65.358 53.7855 65.358 53.7855C65.0238 54.117 64.9284 52.8857 65.5013 49.5706C65.9787 46.729 66.9336 40.5724 66.9336 40.5724C66.9336 40.5724 68.1272 33.4212 63.2096 31.9057C58.3875 30.3902 54.7591 33.658 49.8893 33.137C44.7807 32.6161 34.7069 25.6543 27.068 37.3993C23.6783 42.5614 19.4769 42.2299 19.4769 42.2299C19.4769 42.2299 19.9543 54.4959 19.9543 54.9695C19.9543 55.4431 16.2781 50.2336 13.3657 51.1808C12.6018 51.4176 12.0289 47.7709 11.3605 40.9512C10.2147 30.7217 11.7902 23.7599 16.2303 19.1188Z" fill="#006CB3"/>
</svg>
