<svg width="80" height="94" viewBox="0 0 80 94" fill="none" xmlns="http://www.w3.org/2000/svg">
<path d="M22.1968 56.006C22.1968 56.006 19.3303 52.1806 16.4638 52.1806C13.5973 52.1806 7.38651 56.9623 11.2085 65.0913C15.0305 73.2203 21.4802 69.8252 21.4802 69.8252C21.4802 69.8252 22.3879 74.607 24.9678 78.1933C30.1275 85.3181 35.8605 88.9522 47.9954 89C59.0793 89 68.1088 85.5093 71.5008 76.0893C76.4695 62.2223 67.4877 55.7669 67.5833 54.0455C67.8222 49.7419 69.9243 39.7959 70.0198 35.0141C70.2109 25.0203 65.4334 16.5088 50.5275 15.409C37.9627 14.4526 24.49 13.9745 18.0882 28.3675C12.594 40.8001 22.1968 56.006 22.1968 56.006Z" fill="white" stroke="#484848" stroke-width="0.7" stroke-miterlimit="10" stroke-linejoin="round"/>
<path d="M64.874 29.5701C67.4374 29.5232 69.5736 36.1826 69.6686 39.7937C69.716 42.9827 66.9153 51.1428 67.6273 53.9097C67.6748 54.0504 67.6748 54.707 67.7697 54.4725C68.5767 52.5497 71.1402 45.6089 71.2826 38.5274C71.4725 31.8211 70.0958 28.8666 70.0958 28.8666C70.0958 28.8666 75.3176 24.6928 71.7573 17.5175C68.4818 10.9988 61.0763 13.3906 61.0763 13.3906C61.0763 13.3906 60.6016 7.38774 53.9082 5.41806C46.6451 3.26079 42.1828 10.1547 42.1828 10.1547C42.1828 10.1547 37.4831 3.72975 31.1695 5.69943C24.1437 7.90359 25.5204 15.4071 25.5204 15.4071C25.5204 15.4071 19.7764 11.7961 15.8837 16.392C13.1779 19.6279 15.7888 24.3176 15.7888 24.3176C15.7888 24.3176 8.66814 24.6459 8.05101 30.508C7.33894 37.2612 14.3172 39.4654 14.3172 39.4654C14.3172 39.4654 13.795 53.0187 15.0293 52.4559C19.2542 50.58 22.8145 56.4422 22.8145 55.9732C22.8145 55.5042 23.0044 44.0144 23.0044 44.0144C23.0044 44.0144 28.4636 33.5094 34.0177 34.7757C37.8629 35.6667 42.7999 35.6198 45.7906 34.4005C50.4428 32.5715 50.2529 29.3825 53.386 30.1797C59.035 31.6336 63.8296 29.5701 64.874 29.5701Z" fill="#006CB3"/>
<path d="M51.0995 47C51.0995 47 56.4252 54.342 56.9727 57.3518C57.4704 60.0879 51 61 51 61" stroke="#484848" stroke-width="0.7" stroke-miterlimit="10" stroke-linecap="round" stroke-linejoin="round"/>
<path d="M45 44.9262C45 44.9262 36.0047 43.4976 34.2622 44.1889C31.8603 45.1105 32.0016 47 32.0016 47" stroke="#484848" stroke-miterlimit="10" stroke-linecap="round" stroke-linejoin="round"/>
<path d="M67 45C67 45 66.2913 43.2103 64.4488 43.0219C61.8504 42.7864 55 44.529 55 44.529" stroke="#484848" stroke-miterlimit="10" stroke-linecap="round" stroke-linejoin="round"/>
<path d="M15 57C15 57 17.925 57.6054 19.275 60.1135C20.58 62.6216 19.725 65 19.725 65" stroke="#484848" stroke-width="0.7" stroke-miterlimit="10" stroke-linecap="round" stroke-linejoin="round"/>
<path d="M16 63C16 63 16.2222 59.9351 18 59" stroke="#484848" stroke-width="0.7" stroke-miterlimit="10" stroke-linecap="round" stroke-linejoin="round"/>
<path d="M36 56V59" stroke="#484848" stroke-width="0.7" stroke-miterlimit="10" stroke-linecap="round" stroke-linejoin="round"/>
<path d="M33 56L32 58" stroke="#484848" stroke-width="0.7" stroke-miterlimit="10" stroke-linecap="round" stroke-linejoin="round"/>
<path d="M38 66C38 66 36 66.8444 36 70" stroke="#484848" stroke-width="0.7" stroke-miterlimit="10" stroke-linecap="round" stroke-linejoin="round"/>
<path d="M61 56L63 58" stroke="#484848" stroke-width="0.7" stroke-miterlimit="10" stroke-linecap="round" stroke-linejoin="round"/>
<path d="M64 55L65 57" stroke="#484848" stroke-width="0.7" stroke-miterlimit="10" stroke-linecap="round" stroke-linejoin="round"/>
<path d="M66 64C66 64 67.0902 65.6386 66.994 68" stroke="#484848" stroke-width="0.7" stroke-miterlimit="10" stroke-linecap="round" stroke-linejoin="round"/>
<path d="M59 69C59 69 56.2369 70.21 51.5261 69.968C46.8153 69.7663 46 69 46 69" stroke="#484848" stroke-width="0.7" stroke-miterlimit="10" stroke-linecap="round" stroke-linejoin="round"/>
<path d="M37.1788 49.4156C36.521 50.519 37.5329 54.152 39.0002 53.5C40.7205 52.6975 42.9434 53.7022 43.5 53C44.0566 52.2978 44.3635 49.4156 43.5033 48.5128C42.8962 47.8608 41.0747 47.9611 40.164 48.1116C39.4556 48.262 37.5329 48.7636 37.1788 49.4156Z" fill="#484848"/>
<path d="M58.4436 48.412C57.6349 49.2262 57.9203 53.0575 59.395 52.8181C61.0601 52.5307 62.2969 53.3449 62.9629 52.8181C63.6289 52.3392 64.3425 50.1361 63.8192 49.1783C63.4386 48.4599 62.3921 48.1247 61.5833 48.0289C60.8698 47.981 58.9669 47.9331 58.4436 48.412Z" fill="#484848"/>
<path d="M35.4345 53.3909C33.7639 51.2489 37.2405 48.4233 40.2655 48.0588C42.4779 47.7853 46.0447 48.4233 45.9996 50.8843C45.9996 53.3453 42.7488 52.7984 40.401 52.9807C39.0465 53.163 36.6084 54.8948 35.4345 53.3909Z" stroke="#484848" stroke-width="0.7" stroke-miterlimit="10" stroke-linecap="round" stroke-linejoin="round"/>
<path d="M56.2375 51.5624C55.0803 49.6713 58.3589 47.5862 61.5893 48.0711C63.9037 48.4591 66.6037 50.2047 65.8805 51.9019C65.109 53.696 63.9519 52.7747 60.9143 52.6777C59.3715 52.6292 57.2018 53.1141 56.2375 51.5624Z" stroke="#484848" stroke-width="0.7" stroke-miterlimit="10" stroke-linecap="round" stroke-linejoin="round"/>
<path d="M60.2258 87.7579C60.7583 87.0992 61.5328 83.6739 60.4678 84.0252C59.8869 84.2009 57.6118 85.5183 52.8194 85.9135C48.2691 86.2648 44.3481 84.9474 44.106 85.167C43.6704 85.6061 44.6869 88.1531 45.171 88.8118C45.5583 89.2948 47.1073 90.217 53.0615 89.9536C57.3213 89.6901 59.8869 88.1531 60.2258 87.7579Z" fill="#006CB3"/>
<path d="M53.9792 64.2254C53.9792 63.9416 54.2156 63.7051 54.5467 63.7051C58.0939 63.7051 61.7829 64.4147 62.3978 64.6512C63.391 65.077 63.0599 67.1111 61.4519 67.5369C60.6005 67.7734 58.1885 66.8273 54.6413 66.6854C53.6954 66.6381 53.9792 64.2254 53.9792 64.2254Z" fill="#006CB3"/>
<path d="M41.304 65.8341C42.3918 65.503 45.3714 63.5634 50.7158 63.5161C51.8509 63.5161 51.4252 65.3138 51.4252 65.7395C51.4252 66.0707 51.1415 66.3545 50.8104 66.4018C48.5402 66.6384 45.9389 67.3006 43.1958 68.5306C41.9188 69.0983 39.2702 66.4964 41.304 65.8341Z" fill="#006CB3"/>
</svg>
