<svg width="80" height="94" viewBox="0 0 80 94" fill="none" xmlns="http://www.w3.org/2000/svg">
<path d="M24.0546 53.3545C24.0546 53.3545 19.7713 46.723 16.9157 46.2494C14.0602 45.7757 11.9185 48.3809 13.5842 53.8282C15.2976 59.5123 21.9129 63.0648 21.9129 63.0648C21.9129 63.0648 32.3833 86.2749 47.6129 88.6433C55.1326 89.8275 64.1276 88.5486 69.0296 77.2751C73.7889 66.3806 68.7916 43.4073 65.9361 36.7759C63.0805 30.1444 58.2261 23.6077 52.0866 21.5235C45.3285 19.2499 32.7641 18.5867 25.8155 26.3076C18.867 34.0286 24.0546 53.3545 24.0546 53.3545Z" fill="white" stroke="#484848" stroke-width="0.7" stroke-miterlimit="10" stroke-linecap="round" stroke-linejoin="round"/>
<path d="M65 66.8571C65 66.8571 61.6522 65.9048 54.9565 64.9524C48.2609 64 43 64 43 64C43 64 46.7304 74 56.3913 74C63.5652 74 65 66.8571 65 66.8571Z" stroke="#484848" stroke-width="0.7" stroke-miterlimit="10" stroke-linecap="round" stroke-linejoin="round"/>
<path d="M56 48C56 48 61 56.7812 61 58.5918C61 60.4023 56 59.9497 56 59.9497" stroke="#484848" stroke-width="0.7" stroke-miterlimit="10" stroke-linecap="round" stroke-linejoin="round"/>
<path d="M51.4932 41L36.03 41.2371C36.03 41.2371 35.0387 55.4626 44.4554 54.9884C54.8138 54.4668 51.4932 41 51.4932 41Z" fill="#484848"/>
<path d="M58 44H50" stroke="#484848" stroke-width="2" stroke-miterlimit="10" stroke-linecap="round" stroke-linejoin="round"/>
<path d="M37 45L23 50" stroke="#484848" stroke-width="2" stroke-miterlimit="10" stroke-linecap="round" stroke-linejoin="round"/>
<path d="M17 50C17 50 19.914 50.6054 21.2589 53.1135C22.6038 55.6216 21.7072 58 21.7072 58" stroke="#484848" stroke-width="0.7" stroke-miterlimit="10" stroke-linecap="round"/>
<path d="M18 56C18 56 18.3333 53.7013 21 53" stroke="#484848" stroke-width="0.7" stroke-miterlimit="10" stroke-linecap="round"/>
<path d="M40 56L39 59" stroke="#484848" stroke-width="0.7" stroke-miterlimit="10" stroke-linecap="round" stroke-linejoin="round"/>
<path d="M37 55L36 57" stroke="#484848" stroke-width="0.7" stroke-miterlimit="10" stroke-linecap="round" stroke-linejoin="round"/>
<path d="M65 56L66 58" stroke="#484848" stroke-width="0.7" stroke-miterlimit="10" stroke-linecap="round" stroke-linejoin="round"/>
<path d="M67 55L69 57" stroke="#484848" stroke-width="0.7" stroke-miterlimit="10" stroke-linecap="round" stroke-linejoin="round"/>
<path d="M46 38.88C46 38.88 42.3644 38 40.5 38C36.3517 38 35 40 35 40" stroke="#484848" stroke-width="0.7" stroke-miterlimit="10" stroke-linecap="round" stroke-linejoin="round"/>
<path d="M67 39C67 39 66.4472 38.0343 62.3266 38.001C58.9598 37.9677 57 38.7669 57 38.7669" stroke="#484848" stroke-width="0.7" stroke-miterlimit="10" stroke-linecap="round" stroke-linejoin="round"/>
<path d="M12.9154 18.089C21.5282 8.81947 37.0975 7.19491 48.2185 6.14373C66.4379 4.42361 63.5039 18.7102 64.2137 18.758C78.6473 19.9047 68.4728 36.7237 69.088 42.6007C69.6559 48.3345 69.8452 56.2183 69.8452 56.2183C69.5139 56.5528 68.5201 44.5597 67.1478 41.5018C64.9709 36.8192 63.4566 31.6589 61.611 29.4609C60.8065 28.5053 58.4403 31.0855 53.566 30.5599C48.5024 30.0343 38.9905 25.5906 32.5072 33.1878C28.4847 37.8704 25.4087 39.4472 25.4087 39.4472C25.4087 39.4472 26.5918 56.505 26.5918 56.9828C26.5918 57.4607 20.2031 47.8089 17.7897 46.4232C15.3762 45.0376 14.0984 46.2799 13.4832 47.1877C13.3413 47.3788 10.7858 45.1809 9.98133 40.8328C8.79824 34.7168 7.70982 23.6794 12.9154 18.089Z" fill="#006CB3"/>
<path d="M70.6948 41.2264L57.0565 41C57.0565 41 55.8602 53 64.4738 53C73.0875 53 70.6948 41.2264 70.6948 41.2264Z" fill="#484848"/>
</svg>
