<svg width="80" height="94" viewBox="0 0 80 94" fill="none" xmlns="http://www.w3.org/2000/svg">
<path d="M21.1802 55.2059C21.1802 55.2059 18.5139 51.6454 15.8476 51.6454C13.1812 51.6454 7.40421 56.096 10.9593 63.6618C14.5144 71.2277 21.6246 67.6673 21.6246 67.6673C21.6246 67.6673 22.5134 72.1623 24.7353 75.2332C28.2904 80.1288 36.2894 85.0244 44.7328 85.0244C53.1761 85.0244 61.4417 81.642 64.2858 76.3903C70.5072 64.9525 63.397 54.3158 63.397 53.4256C63.4859 49.3757 65.5745 40.1631 65.6634 35.7126C65.8856 26.4555 61.4417 18.489 47.5324 17.4654C35.845 16.5753 23.3133 16.1303 17.3585 29.5263C12.248 41.0532 21.1802 55.2059 21.1802 55.2059Z" fill="white" stroke="#484848" stroke-width="0.7" stroke-miterlimit="10"/>
<path d="M45.976 45.5927L26.8229 46.0823C26.8229 46.0823 27.3117 60.769 39.2658 58.4547C48.3757 56.719 45.976 45.5927 45.976 45.5927Z" stroke="#484848" stroke-width="1.3" stroke-miterlimit="10"/>
<path d="M50.7764 48.4854L46.2436 48.9305" stroke="#484848" stroke-width="1.3" stroke-miterlimit="10" stroke-linecap="round" stroke-linejoin="round"/>
<path d="M27.4453 50.2212L20.7795 53.8706" stroke="#484848" stroke-width="1.3" stroke-miterlimit="10" stroke-linecap="round" stroke-linejoin="round"/>
<path d="M56.1104 63.2613C56.1104 63.2613 53.5329 64.7745 48.8668 64.8635C44.2008 64.9525 41.3567 63.2613 41.3567 63.2613" stroke="#484848" stroke-width="0.7" stroke-miterlimit="10" stroke-linecap="round" stroke-linejoin="round"/>
<path d="M51.2649 50.4436C51.2649 50.4436 52.1981 54.0485 53.3091 55.5171C54.6867 57.3419 49.4429 59.5671 47.0432 59.0331" stroke="#484848" stroke-width="0.7" stroke-miterlimit="10" stroke-linecap="round" stroke-linejoin="round"/>
<path d="M63.0863 30.2383C63.0863 30.2383 64.9083 33.9767 64.7749 40.43C64.7305 43.4563 62.6863 50.6217 63.3529 53.2475C63.6195 54.3156 68.0634 46.6607 68.019 39.6289C67.9745 31.4844 66.8636 29.0366 66.8636 29.0366C66.8636 29.0366 74.907 24.9422 70.8631 13.7714C68.1079 6.20546 57.7092 2.60054 46.244 6.73952C29.8016 12.6587 27.1797 20.4916 18.0698 21.8713C12.2483 22.7614 9.00429 19.112 8.87098 19.646C5.76026 31.2619 13.2704 38.1602 13.2704 38.1602C11.6262 44.48 12.8705 52.847 12.8705 52.847C17.3143 48.9305 21.3583 55.6953 21.3583 55.2502C21.3583 54.8052 20.7361 41.4536 20.7361 41.4536C20.7361 41.4536 30.4682 43.4563 39.4449 37.9377C48.7326 32.241 54.954 31.796 63.0863 30.2383Z" fill="#006CB3"/>
<path d="M42.2441 43.2339C42.2441 43.2339 36.6449 42.1213 34.8673 42.3883C32.4232 42.7444 31.6233 44.124 31.6233 44.124" stroke="#484848" stroke-width="0.7" stroke-miterlimit="10" stroke-linecap="round" stroke-linejoin="round"/>
<path d="M61.7969 42.3882C61.7969 42.3882 60.2415 40.252 58.464 40.43C56.0198 40.697 52.6425 43.2338 52.6425 43.2338" stroke="#484848" stroke-width="0.7" stroke-miterlimit="10" stroke-linecap="round" stroke-linejoin="round"/>
<path d="M14.159 55.6952C14.159 55.6952 17.0475 56.3183 18.3807 58.8996C19.6694 61.4809 18.8251 63.9287 18.8251 63.9287" stroke="#484848" stroke-width="0.7" stroke-miterlimit="10" stroke-linecap="round" stroke-linejoin="round"/>
<path d="M15.6706 61.8815C15.6706 61.8815 15.9373 59.2556 18.0703 58.4545" stroke="#484848" stroke-width="0.7" stroke-miterlimit="10" stroke-linecap="round" stroke-linejoin="round"/>
<path d="M29.8008 58.143L28.6009 60.1012" stroke="#484848" stroke-width="0.7" stroke-miterlimit="10" stroke-linecap="round" stroke-linejoin="round"/>
<path d="M28.1562 56.9415L26.0676 57.9651" stroke="#484848" stroke-width="0.7" stroke-miterlimit="10" stroke-linecap="round" stroke-linejoin="round"/>
<path d="M60.1083 57.965L61.1748 59.8343" stroke="#484848" stroke-width="0.7" stroke-miterlimit="10" stroke-linecap="round" stroke-linejoin="round"/>
<path d="M62.3309 57.6535L63.9307 59.2557" stroke="#484848" stroke-width="0.7" stroke-miterlimit="10" stroke-linecap="round" stroke-linejoin="round"/>
<path d="M22.0242 59.1666C20.6021 59.3891 19.4023 68.7797 22.2464 74.8769C25.757 82.3983 31.4008 82.8879 31.6674 82.9769C31.6674 82.9769 33.8893 86.9824 39.1775 88.1395C43.2659 89.0296 45.4879 87.5609 46.5988 86.6708C46.5988 86.6708 49.754 89.3412 54.6867 88.0505C59.3083 86.8489 60.1082 83.1104 60.1082 83.1104C71.5734 78.9714 67.885 56.9413 65.5742 57.6534C64.1521 58.0985 66.5518 65.2638 60.1971 65.4863C57.9307 65.5753 61.2192 80.0396 48.5541 80.0396C41.044 80.0396 38.511 74.966 38.7332 66.51C38.7776 64.8188 33.756 66.51 30.4675 65.4418C25.8903 64.1512 22.0242 59.1666 22.0242 59.1666Z" fill="#006CB3"/>
<path d="M34.9999 49.0639C34.4222 50.0431 35.5332 53.648 36.8219 53.0694C38.3329 52.3573 39.9771 52.9359 40.4659 52.3128C40.9547 51.6898 41.3103 49.0639 40.5548 48.2628C40.0215 47.6843 38.4217 47.7733 37.6218 47.9068C36.9997 47.9958 35.311 48.4409 34.9999 49.0639Z" fill="#484848"/>
<path d="M51.5764 69.848C52.0653 69.1804 51.6209 66.4211 50.5988 66.7326C49.4434 67.0886 48.2435 66.5101 47.8436 66.9551C47.4436 67.4002 46.9548 69.2694 47.3992 69.8925C47.7547 70.382 48.9101 70.4265 49.5323 70.4265C50.0211 70.4265 51.2654 70.2485 51.5764 69.848Z" fill="#006CB3"/>
<path d="M54.997 47.6399C54.2416 48.3965 54.5082 51.9569 55.8858 51.7344C57.4412 51.4674 58.5966 52.224 59.2187 51.7344C59.8408 51.2893 60.5074 49.2421 60.0186 48.352C59.6631 47.6844 58.6854 47.3729 57.93 47.2839C57.2634 47.2839 55.4859 47.1949 54.997 47.6399Z" fill="#484848"/>
<path d="M33.178 53.025C31.5338 50.9332 34.9556 48.1739 37.933 47.8179C40.1105 47.5508 43.6212 48.1739 43.5767 50.5772C43.5767 52.9805 40.3771 52.4464 38.0663 52.6244C36.7332 52.8025 34.3335 54.4937 33.178 53.025Z" stroke="#484848" stroke-width="0.7" stroke-miterlimit="10" stroke-linecap="round" stroke-linejoin="round"/>
<path d="M52.8204 50.6218C51.7539 48.8861 54.7757 46.9723 57.7531 47.4174C59.8862 47.7734 62.3748 49.3756 61.7082 50.9333C60.9972 52.58 59.9306 51.7344 57.131 51.6454C55.709 51.6009 53.7092 52.0459 52.8204 50.6218Z" stroke="#484848" stroke-width="0.7" stroke-miterlimit="10" stroke-linecap="round" stroke-linejoin="round"/>
<path d="M50.7777 60.0568C50.7777 59.7898 50.9999 59.5673 51.2666 59.5673C54.5995 59.5228 58.0657 60.1459 58.6878 60.3684C59.6655 60.7244 59.3544 62.6382 57.8435 63.0832C57.0436 63.3057 54.7772 62.4601 51.4443 62.3711C50.5555 62.3711 50.7777 60.0568 50.7777 60.0568Z" fill="#006CB3"/>
<path d="M38.8678 61.748C39.8899 61.3919 42.6895 59.7897 47.7111 59.6562C48.7777 59.6117 48.3333 61.1249 48.3777 61.5254C48.3777 61.837 48.1555 62.104 47.8 62.1485C45.6669 62.4155 43.2228 63.0386 40.6454 64.2403C39.49 64.7743 36.9569 62.4155 38.8678 61.748Z" fill="#006CB3"/>
<path d="M68.9965 43.8569L50.2877 45.3701C50.2877 45.3701 50.8654 56.1849 58.8644 56.5854C70.3741 57.075 68.9965 43.8569 68.9965 43.8569Z" stroke="#484848" stroke-width="1.3" stroke-miterlimit="10"/>
</svg>
