<svg width="80" height="94" viewBox="0 0 80 94" fill="none" xmlns="http://www.w3.org/2000/svg">
<path d="M22.0668 56.8627C22.0668 56.8627 19.2259 54.5845 16.7419 53.2407C10.7239 50.0173 7.58886 56.8203 13 64.9289C17.9191 72.296 22.7658 69.3168 22.7658 69.3168C22.7658 69.3168 24.8925 74.4514 27.3828 77.5906C33.0007 84.748 40.0316 88.8391 49.3312 88.61C55.9056 88.4147 60.3716 80.5325 63.438 74.582C66.8162 68.0552 67.0537 61.8107 65.1758 53.9753C64.9115 52.9908 67.614 39.5379 67.5662 34.7667C67.4609 24.8939 63.4558 16.6491 48.7248 16C36.3462 15.4227 23.0892 15.3441 17.2188 29.7417C12.1346 42.1313 22.0668 56.8627 22.0668 56.8627Z" fill="white" stroke="#484848" stroke-width="0.7" stroke-miterlimit="10" stroke-linecap="round" stroke-linejoin="round"/>
<path d="M57.7385 66.8564C57.7385 66.8564 55.3088 66.2652 49.2592 66.0188C42.2675 65.7232 39.7385 66.0188 39.7385 66.0188C39.7385 66.0188 41.5733 74.8875 48.9617 74.8875C57.1931 74.8382 57.7385 66.8564 57.7385 66.8564Z" stroke="#484848" stroke-width="0.7" stroke-miterlimit="10"/>
<path d="M44.2385 54.3875C45.9948 52.4314 44.0937 47.219 37.903 47.9525C33.2051 48.4905 31.7123 52.9406 33.4246 54.8477C34.3581 55.8875 37.3775 55.0342 38.7385 54.8875C40.6265 54.643 43.2385 54.8875 44.2385 54.3875Z" stroke="#484848" stroke-width="0.7" stroke-miterlimit="10"/>
<path d="M44.2146 54.1701C45.4043 52.5225 44.9829 47.4589 38.5105 47.9166C37.2417 49.63 37.6321 53.3382 39.7385 54.3875C40.7385 54.3875 43.4531 55.2685 44.2146 54.1701Z" fill="#484848"/>
<path d="M62.8487 53.6306C65.1805 52.789 63.7383 46.8875 57.7391 47.3874C53.5612 47.6349 51.6754 51.8979 53.3757 53.6306C53.8615 54.1256 55.8532 53.7791 57.1649 53.6306C60.9541 53.1355 61.7313 54.0266 62.8487 53.6306Z" stroke="#484848" stroke-width="0.7" stroke-miterlimit="10"/>
<path d="M63.647 53.1913C64.1426 51.7404 63.0293 47.3875 58.7388 47.3875C58.3423 47.3875 56.8994 50.8899 58.9807 53.1913C59.469 53.7312 63.2506 54.442 63.647 53.1913Z" fill="#484848"/>
<path d="M47.7385 47.8875C47.7385 47.8875 54.1043 54.0721 54.6928 57.1182C55.2277 59.8875 50.8947 59.8875 50.8947 59.8875" stroke="#484848" stroke-width="0.7" stroke-miterlimit="10" stroke-linecap="round" stroke-linejoin="round"/>
<path d="M44.7385 44.9603C44.7385 44.9603 38.3635 43.4002 35.7385 44.0426C31.4729 45.0521 29.7385 46.8875 29.7385 46.8875" stroke="#484848" stroke-miterlimit="10" stroke-linecap="round" stroke-linejoin="round"/>
<path d="M64.7385 44.3877C64.7385 44.3877 64.0595 42.9383 60.3476 42.8884C57.3147 42.8384 53.7385 44.8875 53.7385 44.8875" stroke="#484848" stroke-miterlimit="10" stroke-linecap="round" stroke-linejoin="round"/>
<path d="M14.7385 56.8875C14.7385 56.8875 17.6713 57.5028 19.0002 60.0083C20.3291 62.5138 19.4585 64.8875 19.4585 64.8875" stroke="#484848" stroke-width="0.7" stroke-miterlimit="10" stroke-linecap="round" stroke-linejoin="round"/>
<path d="M15.7385 62.8875C15.7385 62.8875 15.965 59.8348 17.7385 58.8875" stroke="#484848" stroke-width="0.7" stroke-miterlimit="10" stroke-linecap="round" stroke-linejoin="round"/>
<path d="M33.7385 58.8875L32.7385 61.8875" stroke="#484848" stroke-width="0.7" stroke-miterlimit="10" stroke-linecap="round" stroke-linejoin="round"/>
<path d="M30.7385 58.8875L29.7385 60.8875" stroke="#484848" stroke-width="0.7" stroke-miterlimit="10" stroke-linecap="round" stroke-linejoin="round"/>
<path d="M60.7385 58.8875L61.7385 60.8875" stroke="#484848" stroke-width="0.7" stroke-miterlimit="10" stroke-linecap="round" stroke-linejoin="round"/>
<path d="M62.7385 57.8875L64.7385 59.8875" stroke="#484848" stroke-width="0.7" stroke-miterlimit="10" stroke-linecap="round" stroke-linejoin="round"/>
<path d="M55.2055 87.0196C51.0042 90.0865 44.4994 89.3302 40.5279 88.1044C36.4613 86.8351 29.7132 83.6067 22.8827 69.7232C21.9342 67.7589 22.229 60.3362 22.5594 60.419C23.267 60.5834 22.5274 75.1088 35.1909 80.3393C36.7079 80.943 36.4423 75.1588 38.5858 73.1953C39.4517 72.3818 39.9925 82.6989 49.9469 81.8934C60.3226 81.0754 58.2716 73.5371 59.3522 73.644C60.7151 73.7888 59.8326 77.1977 60.7054 76.6157C64.465 73.8628 66.2893 62.734 66.2205 63.5701C65.3667 75.8285 63.3774 81.0542 55.2055 87.0196Z" fill="#006CB3"/>
<path d="M18.6634 19.1178C33.8433 6.27794 51.177 13.0728 51.521 7.0343C51.5587 6.70092 52.5797 7.43005 52.759 8.65886C52.8837 9.65195 52.5217 10.2798 52.5217 10.2798C52.5217 10.2798 54.7775 10.9248 56.5839 9.25722C58.4825 7.492 58.5308 4.3103 58.5308 4.3103C58.5308 4.3103 61.5125 5.3609 61.4336 9.11312C61.4202 11.8666 59.8625 12.2926 59.8752 12.7194C62.9238 12.8187 65.3789 10.5623 66.2358 8.97044C66.5056 8.44029 68.0514 10.8152 67.3375 14.0167C66.5831 17.4567 63.9695 17.5818 63.9695 17.5818C63.9695 17.5818 65.0423 18.4518 66.7888 17.9727C69.0555 17.3832 68.9935 15.2965 69.1573 16.0036C70.1079 20.7695 67.9662 23.966 67.2266 24.7C67.2266 24.7 67.2266 24.7 67.228 24.7474C69.2528 30.4307 67.4599 42.1608 66.6037 46.9804C65.5394 52.803 65.5 53.5 65.5 53.5C65.177 53.8419 65.0784 52.9301 65.5 49.5C65.8881 46.5455 66.2286 39.1595 66.2286 39.1595C66.2286 39.1595 66.7374 32.2617 62.9894 31.044C58.3281 29.5212 54.9502 32.7543 48.5328 32.9925C42.9713 33.2052 35.7523 25.6826 26.5555 34.8796C22.164 39.2346 20.3495 42.2315 20.3495 42.2315C20.3495 42.2315 21.3273 55.9203 21.3414 56.3946C21.3555 56.8688 19.3004 53.3699 13.9301 52.0105C13.8336 51.9659 13.3662 50.6507 12.6181 44.6921C10.9652 32.3049 11.8865 24.8728 18.6634 19.1178Z" fill="#006CB3"/>
<path d="M50.7359 61.3296C50.7359 61.093 50.9724 60.9038 51.2089 60.9038C54.2358 61.093 57.4046 61.8499 57.9722 62.0865C58.8235 62.4649 58.4451 64.2153 57.0262 64.4991C56.2695 64.641 54.2358 63.7422 51.1616 63.4584C50.3576 63.4584 50.7359 61.3296 50.7359 61.3296Z" fill="#006CB3"/>
<path d="M39.7636 61.5189C40.7568 61.377 43.5 60.289 48.0876 60.9513C49.0335 61.0932 48.4187 62.3705 48.3714 62.7489C48.3241 63.0328 48.0876 63.2693 47.7566 63.222C45.7701 63.1274 43.4999 63.3166 40.946 64.0262C39.8582 64.3574 37.9663 61.8028 39.7636 61.5189Z" fill="#006CB3"/>
</svg>
