<svg width="80" height="94" viewBox="0 0 80 94" fill="none" xmlns="http://www.w3.org/2000/svg">
<path d="M22.1994 52.4308C22.1994 52.4308 19.3775 48.6547 16.5556 48.6547C13.7337 48.6547 8.56023 53.0916 12.3228 61.1159C16.0853 69.1402 22.0583 65.9777 22.0583 65.9777C22.0583 65.9777 24.504 71.6891 26.8556 74.8988C30.6181 80.091 38.4724 85 47.4085 85C56.3445 85 61.4239 79.855 64.528 74.5684C73.2759 59.7471 66.4093 54.7909 66.8796 50.5427C67.3499 46.2946 67.9143 36.0518 68.0084 31.3316C68.1965 21.4665 64.8102 13.4894 50.0893 12.4037C37.7199 11.4597 24.457 10.9877 18.1547 25.1954C12.7461 37.4207 22.1994 52.4308 22.1994 52.4308Z" fill="white" stroke="#484848" stroke-width="0.7" stroke-miterlimit="10" stroke-linecap="round" stroke-linejoin="round"/>
<path d="M36.153 46.1797C35.5893 47.0992 36.6735 50.4847 37.9312 49.9413C39.4057 49.2726 41.0229 50.0851 41.5 49.5C41.9771 48.9149 42.3114 46.1797 41.5741 45.4273C41.0537 44.884 39.4924 44.9676 38.7118 45.093C38.1046 45.2184 36.4566 45.6363 36.153 46.1797Z" fill="#006CB3"/>
<path d="M57.3697 44.3926C56.6958 45.2102 56.9336 49.0578 58.1625 48.8173C59.55 48.5287 60.5808 49.3463 61.1358 48.8173C61.6908 48.3364 62.2854 46.124 61.8493 45.1621C61.5322 44.4407 60.66 44.104 59.9861 44.0078C59.3915 44.0078 57.7661 43.9117 57.3697 44.3926Z" fill="#006CB3"/>
<path d="M33.4739 50.3909C31.6515 48.2489 35.4441 45.4233 38.7442 45.0588C41.1577 44.7853 45.0488 45.4233 44.9995 47.8843C44.9995 50.3453 41.4532 49.7984 38.892 49.9807C37.4143 50.163 34.7546 51.8948 33.4739 50.3909Z" stroke="#484848" stroke-width="0.7" stroke-miterlimit="10" stroke-linecap="round" stroke-linejoin="round"/>
<path d="M54.2375 47.5624C53.0803 45.6713 56.3589 43.5862 59.5893 44.0711C61.9037 44.4591 64.6037 46.2047 63.8805 47.9019C63.109 49.696 61.9519 48.7747 58.9143 48.6777C57.3715 48.6292 55.1536 49.1141 54.2375 47.5624Z" stroke="#484848" stroke-width="0.7" stroke-miterlimit="10" stroke-linecap="round" stroke-linejoin="round"/>
<path d="M50 44C50 44 55.467 51.4448 55.9724 54.5819C56.4318 57.3913 51.0107 58 51.0107 58" stroke="#484848" stroke-width="0.7" stroke-miterlimit="10" stroke-linecap="round" stroke-linejoin="round"/>
<path d="M45 40.9765C45 40.9765 42.8251 39.9529 38.6236 40.0017C35.9049 40.0504 32 42 32 42" stroke="#484848" stroke-miterlimit="10" stroke-linecap="round" stroke-linejoin="round"/>
<path d="M65 42C65 42 62.7436 40.0459 59.218 40.0015C55.7393 39.9571 54 40.9341 54 40.9341" stroke="#484848" stroke-miterlimit="10" stroke-linecap="round" stroke-linejoin="round"/>
<path d="M15 53C15 53 17.9328 53.6923 19.2617 56.511C20.5906 59.3297 19.7199 62 19.7199 62" stroke="#484848" stroke-width="0.7" stroke-miterlimit="10" stroke-linecap="round" stroke-linejoin="round"/>
<path d="M17 59C17 59 17.2264 56.7105 19 56" stroke="#484848" stroke-width="0.7" stroke-miterlimit="10" stroke-linecap="round" stroke-linejoin="round"/>
<path d="M35 53L34 55" stroke="#484848" stroke-width="0.7" stroke-miterlimit="10" stroke-linecap="round" stroke-linejoin="round"/>
<path d="M32 59C30.1111 59.8571 30 62 30 62" stroke="#484848" stroke-width="0.7" stroke-miterlimit="10" stroke-linecap="round" stroke-linejoin="round"/>
<path d="M64 59C64.7778 59.6 65 62 65 62" stroke="#484848" stroke-width="0.7" stroke-miterlimit="10" stroke-linecap="round" stroke-linejoin="round"/>
<path d="M32 52L31 53" stroke="#484848" stroke-width="0.7" stroke-miterlimit="10" stroke-linecap="round" stroke-linejoin="round"/>
<path d="M61 52L62 54" stroke="#484848" stroke-width="0.7" stroke-miterlimit="10" stroke-linecap="round" stroke-linejoin="round"/>
<path d="M64 51L65 53" stroke="#484848" stroke-width="0.7" stroke-miterlimit="10" stroke-linecap="round" stroke-linejoin="round"/>
<path d="M16.4366 22.4592C16.4366 22.4592 17.1536 10.0799 35.7022 8.325C62.3298 5.81121 67.9708 18.5699 68.9748 22.886C71.2694 32.4194 69.0704 40.9094 68.5445 45.6524C67.923 51.344 67.1104 50.68 67.1104 50.68C66.7757 51.012 67.1582 39.4391 67.1582 39.4391C67.1582 39.4391 68.9748 25.159 64.8635 22.9809C59.9395 20.3722 57.8839 26.7279 48.514 26.7279C40.1003 26.7279 28.4835 16.9098 21.6474 28.3405C17.5361 35.2652 22.9859 42.7118 23.1293 44.4192C23.3205 46.0319 22 50.7629 22 51C22 51.4743 19 48.5 17 48.5C15 48.5 14.2171 49.0731 13.5 49.5C13.3088 49.5949 11.7038 44.0398 11.1301 37.6368C10.5087 29.2891 12.0863 23.6923 16.4366 22.4592Z" fill="#2290D8"/>
<path d="M69 57.5C68.5211 55.9969 69.035 65.6551 64.5335 67.4399C64.1504 67.5809 64.2941 64.8565 63.6715 62.9777C62.5222 59.5958 60.0321 58.5625 57.6856 58.9382C54.8602 59.361 53.9982 60.1595 50.8855 60.4413C48.3953 60.6761 43.1756 56.5427 37.86 57.5761C34.1248 58.2806 31.0121 62.2732 31.7783 69.0839C31.8741 69.7415 24.9304 62.2731 21.0514 57.0124C20.7641 56.6367 21.7698 64.9035 21.8655 65.702C22.4402 71.0097 27.9473 81.9539 40.1587 85.2888C43.2235 86.1343 52.8489 86.651 57.8292 84.3025C65.0124 80.8736 71.8254 66.5654 69 57.5Z" fill="#2290D8"/>
<path d="M58.8916 70.5521C60.5079 68.4955 60.7388 63.4683 56.9521 62.9656C54.3661 62.6 53.1655 64.1538 50.0715 63.8339C44.9457 63.3312 42.96 59.218 39.3581 60.132C36.1256 60.9547 35.2481 64.3366 36.6335 67.8557C37.4647 70.0037 40.7896 73.2485 47.2084 73.8884C53.3502 74.4825 57.2754 72.6087 58.8916 70.5521Z" fill="white" stroke="#484848" stroke-width="0.7" stroke-miterlimit="10"/>
<path d="M60 66.6166C60 66.6166 57.1509 68.852 50.7284 68.9978C41.9879 69.1436 36.5 62.5 36.5 62.5" stroke="#484848" stroke-width="0.7" stroke-miterlimit="10"/>
<path d="M57.9971 72C61.4465 69.0552 60.221 62.5864 56 63.0208L57.9971 72Z" fill="#484848"/>
<path d="M48 79C48.7792 77.7649 51 78.0223 51 78.0223" stroke="#484848" stroke-width="0.7" stroke-miterlimit="10" stroke-linecap="round" stroke-linejoin="round"/>
</svg>
