<svg width="80" height="94" viewBox="0 0 80 94" fill="none" xmlns="http://www.w3.org/2000/svg">
<path d="M54.4746 79.5C36.2758 80.3861 27.6464 64 27.6464 64C27.6464 64 19.9497 61.925 16.7805 58.8727C12.2668 54.5405 12.5069 44.6945 16.9245 43.0699C23.6951 40.5592 26.4801 49.6175 26.4801 49.6175C26.4321 50.5529 29.0731 48.2391 33.5868 43.2669C39.445 36.8178 39.3489 29.5317 39.3489 29.5317C49.7688 34.7993 61.7253 27.4641 65.3267 31.8948C67.9196 35.0947 67.9197 46.6145 68.1597 47.3037C68.976 49.5683 71.0408 54.5897 68.784 62.368C67.2474 67.7833 61.7733 79.1554 54.4746 79.5Z" fill="white"/>
<path d="M61.4524 65.7011C62.7152 63.9483 62.6684 59.873 59.3945 59.6101C57.1496 59.4348 56.1674 60.7495 53.5483 60.6618C49.1051 60.4865 47.1875 57.2439 44.1475 58.1641C41.388 58.9967 40.8268 61.8011 42.1832 64.5618C43.025 66.2707 46.0183 68.7685 51.5839 68.9876C56.8689 69.1629 60.1896 67.4539 61.4524 65.7011Z" stroke="#484848" stroke-width="0.7" stroke-miterlimit="10"/>
<path d="M61.2317 62.6184C61.2317 62.6184 59.0109 64.5478 53.7827 64.9613C46.6575 65.5125 41.4756 60.5 41.4756 60.5" stroke="#484848" stroke-width="0.7" stroke-miterlimit="10"/>
<path d="M60.5835 66.9998C63.6375 64.5013 62.2195 58.4999 58.2683 60.0396L60.5835 66.9998Z" fill="#484848"/>
<mask id="path-5-inside-1_201_460" fill="white">
<path d="M51.8474 53C52.1202 53 52.3413 52.7761 52.3413 52.5C52.3413 52.2239 52.1202 52 51.8474 52C51.5746 52 51.3535 52.2239 51.3535 52.5C51.3535 52.7761 51.5746 53 51.8474 53Z"/>
</mask>
<path d="M51.8474 53C52.1202 53 52.3413 52.7761 52.3413 52.5C52.3413 52.2239 52.1202 52 51.8474 52C51.5746 52 51.3535 52.2239 51.3535 52.5C51.3535 52.7761 51.5746 53 51.8474 53Z" fill="#006CB3"/>
<path d="M51.3413 52.5C51.3413 52.2355 51.5564 52 51.8474 52V54C52.684 54 53.3413 53.3168 53.3413 52.5H51.3413ZM51.8474 52C52.1385 52 52.3535 52.2355 52.3535 52.5H50.3535C50.3535 53.3168 51.0108 54 51.8474 54V52ZM52.3535 52.5C52.3535 52.7645 52.1385 53 51.8474 53V51C51.0108 51 50.3535 51.6832 50.3535 52.5H52.3535ZM51.8474 53C51.5564 53 51.3413 52.7645 51.3413 52.5H53.3413C53.3413 51.6832 52.684 51 51.8474 51V53Z" fill="#484848" mask="url(#path-5-inside-1_201_460)"/>
<path d="M17.7683 48C17.7683 48 20.5094 48 22.2406 50.1778C23.9237 52.4074 23.6833 55 23.6833 55" stroke="#484848" stroke-width="0.7" stroke-miterlimit="10" stroke-linecap="round" stroke-linejoin="round"/>
<path d="M53.7344 43C53.7344 43 55.1696 48.1105 55.8873 49.8922C56.7316 52.0021 57.2803 53.0804 57.2803 54.2526C57.2803 55.4247 54.5786 56.55 52.3413 55.706" stroke="#484848" stroke-width="0.7" stroke-miterlimit="10" stroke-linecap="round" stroke-linejoin="round"/>
<path d="M75.8426 49.6477C74.5346 45.6852 73.5069 44.0813 73.5069 44.0813C73.5069 44.0813 78.4585 31.156 72.0588 20.9667C66.6401 12.287 52.346 8.65469 41.3218 12.57C31.2318 16.1551 26.8875 24.5519 26.8875 24.5519C26.8875 24.5519 20.628 22.3819 14.7889 29.1748C8.94982 35.9676 1 75 1 75L10.3045 77.4323L13.2007 69.7432L14.0882 77.9984C14.0882 77.9984 32.7267 83.093 45.3858 82.9987C58.045 82.9044 67.5744 80.074 67.5744 80.074V73.6114L69.2561 77.5739L78.5 75.5C78.5 74.132 78.7855 58.4218 75.8426 49.6477ZM53.9343 79.2249C36.2301 80.074 27.8685 62.856 27.8685 62.856C27.8685 62.856 20.3478 62.3843 17.2647 59.4596C12.8737 55.3084 13.1073 45.8739 17.4048 44.3172C23.9913 41.9114 26.7007 50.5911 26.7007 50.5911C26.654 51.4874 29.2232 49.2703 33.6142 44.5059C39.3132 38.3263 39.2197 31.3447 39.2197 31.3447C49.3564 36.3922 60.9879 29.3635 64.4913 33.609C67.0138 36.6752 67.0138 47.7136 67.2474 48.374C68.0415 50.544 70.0502 55.3556 67.8547 62.8088C66.3599 67.9978 61.0346 78.8947 53.9343 79.2249Z" fill="#006CB3"/>
<path d="M38.5122 52V54" stroke="#484848" stroke-width="0.7" stroke-miterlimit="10" stroke-linecap="round" stroke-linejoin="round"/>
<path d="M41.4756 52L42.4634 54" stroke="#484848" stroke-width="0.7" stroke-miterlimit="10" stroke-linecap="round" stroke-linejoin="round"/>
<path d="M35.5488 44L38.0183 46.5" stroke="#484848" stroke-width="0.7" stroke-miterlimit="10" stroke-linecap="round" stroke-linejoin="round"/>
<path d="M38.5122 44L39.5 45" stroke="#484848" stroke-width="0.7" stroke-miterlimit="10" stroke-linecap="round" stroke-linejoin="round"/>
<path d="M66.1707 44L65.1829 45" stroke="#484848" stroke-width="0.7" stroke-miterlimit="10" stroke-linecap="round" stroke-linejoin="round"/>
<path d="M64.1951 42L63.2073 44" stroke="#484848" stroke-width="0.7" stroke-miterlimit="10" stroke-linecap="round" stroke-linejoin="round"/>
<path d="M61.2317 52L62.2195 53" stroke="#484848" stroke-width="0.7" stroke-miterlimit="10" stroke-linecap="round" stroke-linejoin="round"/>
<path d="M64.1951 51L65.1829 52" stroke="#484848" stroke-width="0.7" stroke-miterlimit="10" stroke-linecap="round" stroke-linejoin="round"/>
<path d="M56.2927 39C56.2927 39 59.1839 38.0827 61.1113 38.0041C63.0387 37.9516 64.1952 38.4234 64.1952 38.4234" stroke="#484848" stroke-miterlimit="10" stroke-linecap="round" stroke-linejoin="round"/>
<path d="M48.3903 39.9758C48.3903 39.9758 44.5469 38.7877 41.8423 39.0335C39.0903 39.2793 37.5244 41 37.5244 41" stroke="#484848" stroke-miterlimit="10" stroke-linecap="round" stroke-linejoin="round"/>
<path d="M21.638 58.5123C21.638 58.5123 23.5102 60.8954 22.2933 63.2785C21.1699 65.4782 17.8935 64.47 17.051 63.0493C15.9745 61.262 16.8638 58.4665 16.8638 58.4665L15.8809 57C15.8809 57 14.4299 58.8789 14.8979 62.7743C15.1788 65.1116 16.3489 67.7238 19.0169 67.9529C21.2167 68.1362 23.9315 67.9529 25.2889 64.2408C26.3654 61.262 24.8676 58.1915 24.4464 57.5499C24.0719 57.0458 22.2465 56.5417 21.638 58.5123Z" fill="#FF6CA1"/>
<path d="M40.6735 45.0451C39.5 46.5 40.6911 50.0565 41.9709 49.5C43.4213 48.9007 45.4104 49.5993 45.9223 49C46.4342 48.4007 46.9086 46 46.0485 44.4886C45.5366 43.8893 44.0009 43.9749 43.233 44.0605C42.6358 44.1033 41.0148 44.4886 40.6735 45.0451Z" fill="#484848"/>
<path d="M57.6854 43.3684C56.9473 44.1649 57.2078 47.9133 58.5538 47.679C60.0735 47.3979 61.4629 48.335 62.0708 47.8665C62.6787 47.3979 63.5471 45.2426 63.0694 44.3055C62.7221 43.6027 61.2892 43.1341 60.5511 43.0404C59.9432 42.9936 58.163 42.8999 57.6854 43.3684Z" fill="#484848"/>
<path d="M37.9404 49.3188C36.2444 47.0706 40.0725 44.3072 43.3191 44.0261C45.6935 43.8388 49.4732 44.635 49.3762 47.1643C49.2793 49.6935 45.7904 48.9909 43.3191 49.1314C41.817 49.2251 39.1518 50.9113 37.9404 49.3188Z" stroke="#484848" stroke-width="0.7" stroke-miterlimit="10" stroke-linecap="round" stroke-linejoin="round"/>
<path d="M55.5395 46.5624C54.3965 44.6713 57.6351 42.5862 60.8261 43.0711C63.1122 43.4591 65.7793 45.2047 65.0649 46.9019C64.3029 48.696 63.1598 47.7747 60.1593 47.6777C58.6353 47.6292 56.4921 48.1141 55.5395 46.5624Z" stroke="#484848" stroke-width="0.7" stroke-miterlimit="10" stroke-linecap="round" stroke-linejoin="round"/>
</svg>
