<?xml version="1.0" encoding="utf-8"?>
<!-- Generator: Adobe Illustrator 23.0.2, SVG Export Plug-In . SVG Version: 6.00 Build 0)  -->
<svg version="1.1" id="Layer_1" xmlns="http://www.w3.org/2000/svg" xmlns:xlink="http://www.w3.org/1999/xlink" x="0px" y="0px"
	 viewBox="0 0 19.18 16.97" style="enable-background:new 0 0 19.18 16.97;" xml:space="preserve">
<style type="text/css">
	.st0{opacity:0.5;fill:#FFFFFF;}
	.st1{fill:#FFFFFF;}
</style>
<g>
	<path class="st0" d="M19.02,15.15l-3.1-5.38c0.41,0.73-0.1,1.62-1.32,1.62L9.2,11.41c-0.71,0-1.34,0.4-1.66,0.98l-2.77,4.59h8.3
		h4.9C18.9,16.97,19.48,15.96,19.02,15.15z"/>
	<path class="st1" d="M15.91,9.77c0,0,0-0.01-0.01-0.01l-2.79-4.91l-2.45-4.24c-0.47-0.81-1.64-0.81-2.1,0L6.11,4.85l-3.5,6.06
		l-2.45,4.24c-0.47,0.81,0.12,1.82,1.05,1.82h3.5h0.05l2.77-4.59c0.32-0.58,0.95-0.98,1.66-0.98l5.39-0.01
		C15.81,11.4,16.32,10.5,15.91,9.77z"/>
</g>
</svg>
