<svg width="218" height="41" viewBox="0 0 218 41" fill="none" xmlns="http://www.w3.org/2000/svg">
<path d="M17.5343 21.3947C17.5343 24.9302 16.9267 27.6378 15.7144 29.5235C14.4991 31.4091 12.6942 32.3519 10.2969 32.3519C8.46786 32.3519 6.99558 31.6116 5.88609 30.1278V40.5865H0V9.44021H5.45076L5.65935 11.4981C6.78396 9.84816 8.31368 9.02319 10.2576 9.02319C12.6549 9.02319 14.4628 9.89651 15.6751 11.6431C16.8874 13.3898 17.5101 16.0641 17.5373 19.6662V21.3947H17.5343ZM11.6694 19.92C11.6694 17.7412 11.4306 16.2061 10.9529 15.3056C10.4752 14.4051 9.66504 13.9549 8.52833 13.9549C7.32209 13.9549 6.44235 14.4595 5.88609 15.4718V26.0121C6.41212 26.9821 7.30697 27.4656 8.57065 27.4656C9.73457 27.4656 10.5418 26.976 10.9952 25.9909C11.4457 25.0088 11.6724 23.4767 11.6724 21.3947V19.92H11.6694Z" fill="white"/>
<path d="M20.0255 3.61733C20.0255 2.70171 20.3187 1.95531 20.8991 1.37209C21.4826 0.791898 22.2596 0.498779 23.23 0.498779C24.2004 0.498779 24.9774 0.788876 25.5608 1.37209C26.1413 1.95531 26.4345 2.70171 26.4345 3.61733C26.4345 4.51785 26.1473 5.26727 25.5699 5.86257C24.9925 6.45788 24.2125 6.75705 23.23 6.75705C22.2444 6.75705 21.4645 6.45788 20.8901 5.86257C20.3157 5.26727 20.0255 4.52087 20.0255 3.61733ZM26.2048 31.9351H20.2975V9.44045H26.2048V31.9351Z" fill="white"/>
<path d="M40.8004 15.1153L38.8474 14.949C37.2391 14.949 36.1477 15.6562 35.5794 17.0704V31.9349H29.6721V9.44021H35.2257L35.3919 11.8728C36.3201 9.97507 37.6019 9.02319 39.2374 9.02319C39.9025 9.02319 40.4436 9.11385 40.8608 9.29213L40.8004 15.1153Z" fill="white"/>
<path d="M50.4898 27.4662C52.1948 27.4662 53.0625 26.3602 53.0897 24.1391H58.6221C58.5948 26.5928 57.8391 28.5752 56.3547 30.0861C54.8703 31.597 52.9567 32.3525 50.6137 32.3525C47.7145 32.3525 45.5046 31.452 43.9779 29.6479C42.4512 27.8469 41.6742 25.1907 41.647 21.6854V19.8964C41.647 16.3608 42.3998 13.6653 43.9053 11.8069C45.4109 9.95149 47.6329 9.02075 50.5744 9.02075C53.0564 9.02075 55.0124 9.78528 56.4393 11.3174C57.8693 12.8494 58.5948 15.0222 58.6251 17.8355H53.0927C53.0776 16.5754 52.869 15.6054 52.4669 14.9255C52.0648 14.2455 51.3967 13.9071 50.4686 13.9071C49.4438 13.9071 48.7061 14.2697 48.2647 14.998C47.8233 15.7263 47.5845 17.1375 47.5573 19.2286V21.5161C47.5573 23.3444 47.648 24.6256 47.8294 25.3539C48.0108 26.0822 48.307 26.617 48.7212 26.9555C49.1384 27.2969 49.7279 27.4662 50.4898 27.4662Z" fill="white"/>
<path d="M71.5792 31.9349C71.413 31.5904 71.2467 31.0072 71.0804 30.1883C70.0253 31.6327 68.5984 32.3519 66.7966 32.3519C64.9102 32.3519 63.3472 31.7294 62.1077 30.4814C60.8652 29.2334 60.2454 27.6197 60.2454 25.6343C60.2454 23.2803 60.9982 21.4551 62.5037 20.1648C64.0092 18.8744 66.1738 18.2157 69.0005 18.1915H70.7902V16.3814C70.7902 15.3721 70.6149 14.6559 70.2702 14.2419C69.9256 13.8279 69.4177 13.6164 68.7526 13.6164C67.2833 13.6164 66.5487 14.4776 66.5487 16.1971H60.6626C60.6626 14.118 61.4426 12.4016 63.0025 11.0509C64.5625 9.70009 66.5336 9.02319 68.9189 9.02319C71.3858 9.02319 73.2964 9.66382 74.6508 10.9481C76.0051 12.2324 76.6793 14.0636 76.6793 16.4479V27.0274C76.7095 28.9705 76.9846 30.4874 77.5107 31.5814V31.9349H71.5792V31.9349ZM68.1056 27.7375C68.7586 27.7375 69.3119 27.6046 69.7714 27.3417C70.2309 27.0788 70.5695 26.7675 70.7902 26.4049V21.7271H69.3754C68.3777 21.7271 67.5887 22.0444 67.0143 22.682C66.4399 23.3196 66.1527 24.1718 66.1527 25.2415C66.1527 26.9035 66.8026 27.7375 68.1056 27.7375Z" fill="white"/>
<path d="M92.0643 26.3928C92.0643 25.4258 91.6622 24.5767 90.858 23.8484C90.0539 23.1232 88.6904 22.3284 86.7707 21.4642C84.848 20.5999 83.5087 19.8807 82.7439 19.3035C81.982 18.7294 81.4197 18.1008 81.06 17.4209C80.6972 16.744 80.5158 15.9402 80.5158 15.0095C80.5158 13.278 81.1416 11.8456 82.3902 10.7185C83.6357 9.58828 85.2501 9.02319 87.2363 9.02319C89.3706 9.02319 91.0787 9.62756 92.3515 10.8333C93.6303 12.039 94.2682 13.6345 94.2682 15.6169H91.9585C91.9585 14.3417 91.5201 13.287 90.6464 12.447C89.7727 11.6099 88.636 11.1899 87.2333 11.1899C85.8759 11.1899 84.7966 11.5374 84.0015 12.2294C83.2004 12.9214 82.8044 13.8249 82.8044 14.9339C82.8044 15.8345 83.1127 16.5718 83.7204 17.1369C84.331 17.705 85.6491 18.4725 87.6747 19.4456C89.7667 20.3612 91.2118 21.1167 92.0038 21.712C92.7929 22.3073 93.3884 22.9691 93.7935 23.6973C94.1956 24.4226 94.3951 25.2868 94.3951 26.284C94.3951 28.1395 93.7512 29.6202 92.4603 30.7141C91.1694 31.808 89.4704 32.3549 87.3602 32.3549C85.1292 32.3549 83.3213 31.7476 81.9427 30.5267C80.5642 29.3089 79.8719 27.7345 79.8719 25.8066H82.2027C82.2723 27.1997 82.7409 28.2785 83.6085 29.043C84.4731 29.8105 85.7247 30.1913 87.3602 30.1913C88.7781 30.1913 89.9148 29.8468 90.7734 29.1548C91.632 28.4628 92.0643 27.5411 92.0643 26.3928Z" fill="white"/>
<path d="M97.8838 19.5454C97.8838 16.303 98.6184 13.7374 100.088 11.8548C101.557 9.96918 103.561 9.02637 106.098 9.02637C108.649 9.02637 110.657 9.9571 112.12 11.8125C113.58 13.671 114.324 16.2275 114.333 19.485V21.8753C114.333 25.1752 113.595 27.7437 112.12 29.5901C110.645 31.4365 108.649 32.3551 106.137 32.3551C103.625 32.3551 101.639 31.4546 100.166 29.6505C98.697 27.8495 97.9352 25.3686 97.8777 22.2077V19.5454H97.8838ZM100.215 21.8602C100.215 24.4499 100.738 26.4836 101.787 27.9674C102.836 29.4511 104.287 30.1884 106.143 30.1884C108.045 30.1884 109.496 29.4783 110.499 28.049C111.506 26.6226 112.017 24.5829 112.029 21.9236V19.5364C112.029 16.9467 111.503 14.9099 110.451 13.4201C109.399 11.9304 107.948 11.187 106.104 11.187C104.314 11.187 102.893 11.9122 101.841 13.3688C100.786 14.8223 100.248 16.8228 100.218 19.3702V21.8602H100.215Z" fill="white"/>
<path d="M121.177 31.935H118.846V0H121.177V31.935Z" fill="white"/>
<path d="M138.563 29.2547C137.285 31.3216 135.31 32.3521 132.635 32.3521C130.594 32.3521 129.056 31.648 128.016 30.2307C126.976 28.8165 126.45 26.7405 126.438 23.9966V9.44336H128.726V23.9362C128.726 25.9729 129.086 27.5201 129.805 28.5717C130.525 29.6233 131.568 30.1491 132.925 30.1491C135.839 30.1491 137.702 28.7349 138.521 25.9095V9.44336H140.852V31.9381H138.606L138.563 29.2547Z" fill="white"/>
<path d="M149.417 3.70203V9.44053H153.265V11.5196H149.417V26.4687C149.417 27.7016 149.601 28.6203 149.97 29.2246C150.336 29.826 150.949 30.1282 151.808 30.1282C152.183 30.1282 152.739 30.0617 153.474 29.9227L153.537 32.0017C153.011 32.2374 152.255 32.3553 151.27 32.3553C148.564 32.3553 147.179 30.4999 147.11 26.783V11.5226H143.633V9.44356H147.107V3.70505H149.417V3.70203Z" fill="white"/>
<path d="M157.153 2.95274C157.153 2.48133 157.283 2.07942 157.549 1.74702C157.812 1.41461 158.187 1.24841 158.671 1.24841C159.157 1.24841 159.535 1.41461 159.804 1.74702C160.076 2.07942 160.212 2.48133 160.212 2.95274C160.212 3.42415 160.076 3.82303 159.804 4.14939C159.535 4.47273 159.157 4.63894 158.671 4.63894C158.187 4.63894 157.812 4.47575 157.549 4.14939C157.283 3.82303 157.153 3.42415 157.153 2.95274ZM159.813 31.9354H157.482V9.44066H159.813V31.9354Z" fill="white"/>
<path d="M164.26 19.5454C164.26 16.303 164.995 13.7374 166.464 11.8548C167.933 9.96918 169.938 9.02637 172.474 9.02637C175.026 9.02637 177.033 9.9571 178.496 11.8125C179.957 13.671 180.7 16.2275 180.709 19.485V21.8753C180.709 25.1752 179.972 27.7437 178.496 29.5901C177.021 31.4365 175.026 32.3551 172.514 32.3551C170.001 32.3551 168.015 31.4546 166.543 29.6505C165.074 27.8495 164.312 25.3686 164.254 22.2077V19.5454H164.26ZM166.591 21.8602C166.591 24.4499 167.114 26.4836 168.163 27.9674C169.212 29.4511 170.663 30.1884 172.52 30.1884C174.421 30.1884 175.872 29.4783 176.876 28.049C177.883 26.6226 178.394 24.5829 178.406 21.9236V19.5364C178.406 16.9467 177.88 14.9099 176.828 13.4201C175.776 11.9304 174.324 11.187 172.48 11.187C170.691 11.187 169.27 11.9122 168.218 13.3688C167.163 14.8223 166.624 16.8228 166.594 19.3702V21.8602H166.591Z" fill="white"/>
<path d="M187.179 9.44036L187.242 13.0182C187.908 11.7974 188.757 10.8274 189.791 10.1082C190.822 9.38597 191.998 9.02637 193.316 9.02637C197.24 9.02637 199.25 11.6403 199.347 16.8651V31.9381H197.059V17.1159C197.044 15.1063 196.693 13.6226 195.998 12.6647C195.302 11.7068 194.214 11.2293 192.733 11.2293C191.526 11.2293 190.438 11.6826 189.477 12.5922C188.512 13.4987 187.781 14.7437 187.282 16.3241V31.9381H184.972V9.44338H187.179V9.44036Z" fill="white"/>
<path d="M215.672 26.3928C215.672 25.4258 215.27 24.5767 214.469 23.8484C213.662 23.1232 212.301 22.3284 210.379 21.4642C208.459 20.5999 207.117 19.8807 206.355 19.3035C205.59 18.7294 205.031 18.1008 204.668 17.4209C204.308 16.744 204.127 15.9402 204.127 15.0095C204.127 13.278 204.75 11.8456 205.998 10.7185C207.247 9.58828 208.861 9.02319 210.847 9.02319C212.982 9.02319 214.69 9.62756 215.962 10.8333C217.235 12.039 217.876 13.6345 217.876 15.6169H215.566C215.566 14.3417 215.128 13.287 214.254 12.447C213.381 11.6099 212.244 11.1899 210.844 11.1899C209.484 11.1899 208.405 11.5374 207.609 12.2294C206.811 12.9214 206.412 13.8249 206.412 14.9339C206.412 15.8345 206.718 16.5718 207.328 17.1369C207.939 17.705 209.257 18.4725 211.283 19.4456C213.375 20.3612 214.817 21.1167 215.609 21.712C216.401 22.3073 216.996 22.9691 217.398 23.6973C217.8 24.4226 218 25.2868 218 26.284C218 28.1395 217.356 29.6202 216.065 30.7141C214.774 31.808 213.078 32.3549 210.968 32.3549C208.737 32.3549 206.929 31.7476 205.551 30.5267C204.169 29.3089 203.477 27.7345 203.477 25.8066H205.808C205.874 27.1997 206.346 28.2785 207.21 29.043C208.078 29.8105 209.33 30.1913 210.965 30.1913C212.38 30.1913 213.517 29.8468 214.375 29.1548C215.243 28.4628 215.672 27.5411 215.672 26.3928Z" fill="white"/>
</svg>
