<svg width="60" height="60" viewBox="0 0 60 60" fill="none" xmlns="http://www.w3.org/2000/svg">
<path fill-rule="evenodd" clip-rule="evenodd" d="M28.187 5.07806V2.35935H30.9057V5.07806H28.187ZM26.8277 1.67968C26.8277 1.3043 27.132 1 27.5074 1H31.5854C31.9608 1 32.2651 1.3043 32.2651 1.67968V5.75773C32.2651 6.13311 31.9608 6.43741 31.5854 6.43741L30.2261 6.43741V10.5156H31.5854C31.9607 10.5156 32.265 10.8199 32.265 11.1953V12.5547H52.6553V11.1953C52.6553 10.8199 52.9596 10.5156 53.3349 10.5156H57.413C57.7884 10.5156 58.0927 10.8199 58.0927 11.1953V15.2734C58.0927 15.6487 57.7884 15.953 57.413 15.953H53.3349C52.9596 15.953 52.6553 15.6487 52.6553 15.2734V13.914H35.447C38.7895 15.0437 40.9974 17.2698 42.3908 19.7677C43.9899 22.6342 44.5165 25.8506 44.5156 28.187H45.1791C45.5545 28.187 45.8588 28.4913 45.8588 28.8667V32.9447C45.8588 33.3201 45.5545 33.6244 45.1791 33.6244H41.1011C40.7257 33.6244 40.4214 33.3201 40.4214 32.9447V28.8667C40.4214 28.4913 40.7257 28.187 41.1011 28.187H43.1563C43.1574 26.0369 42.6687 23.0561 41.2037 20.43C39.6119 17.5764 36.8679 15.1324 32.265 14.5979V15.2734C32.265 15.6487 31.9607 15.953 31.5854 15.953H27.5073C27.1319 15.953 26.8276 15.6487 26.8276 15.2734V14.6927C22.6317 15.379 20.0806 17.7198 18.5688 20.43C17.1038 23.0561 16.615 26.0369 16.6161 28.187H17.9921C18.3675 28.187 18.6718 28.4913 18.6718 28.8667V32.9447C18.6718 33.3201 18.3675 33.6244 17.9921 33.6244H13.9141C13.5387 33.6244 13.2344 33.3201 13.2344 32.9447V28.8667C13.2344 28.4913 13.5387 28.187 13.9141 28.187H15.2568C15.256 25.8506 15.7826 22.6342 17.3816 19.7677C18.7751 17.2698 20.9829 15.0437 24.3255 13.914H6.43741V15.2734C6.43741 15.6487 6.13311 15.953 5.75773 15.953H1.67968C1.3043 15.953 1 15.6487 1 15.2734V11.1953C1 10.8199 1.3043 10.5156 1.67968 10.5156H5.75773C6.13311 10.5156 6.43741 10.8199 6.43741 11.1953V12.5547H26.8276V11.1953C26.8276 10.8199 27.1319 10.5156 27.5073 10.5156H28.8667V6.43741L27.5074 6.43741C27.132 6.43741 26.8277 6.13311 26.8277 5.75773V1.67968ZM28.187 14.5937V11.875H30.9057V14.5937H28.187ZM54.0146 11.875V14.5937H56.7333V11.875H54.0146ZM2.35935 14.5937V11.875H5.07806V14.5937H2.35935ZM14.5937 29.5464V32.2651H17.3124V29.5464H14.5937ZM41.7807 32.2651V29.5464H44.4994V32.2651H41.7807ZM22.7495 45.8588V44.4995H36.343V45.8588H22.7495ZM21.3901 43.8198C21.3901 43.4444 21.6944 43.1401 22.0698 43.1401H23.1885L20.7784 35.3074C20.6943 35.0342 20.7376 34.7376 20.8961 34.4998L28.7544 22.7123C29.1311 22.1473 29.9613 22.1473 30.3379 22.7123L38.1962 34.4998C38.3548 34.7376 38.398 35.0342 38.314 35.3074L35.9039 43.1401H37.0227C37.3981 43.1401 37.7024 43.4444 37.7024 43.8198V46.5385C37.7024 46.9139 37.3981 47.2182 37.0227 47.2182H36.343V57.4129C36.343 58.1637 35.7344 58.7723 34.9837 58.7723H24.1089C23.3581 58.7723 22.7495 58.1637 22.7495 57.4129V47.2182H22.0698C21.6944 47.2182 21.3901 46.9139 21.3901 46.5385V43.8198ZM34.4816 43.1401L36.9578 35.0927L30.2261 24.9951V32.3507C31.3987 32.6525 32.2651 33.717 32.2651 34.9838C32.2651 36.4853 31.0479 37.7025 29.5464 37.7025C28.0449 37.7025 26.8277 36.4853 26.8277 34.9838C26.8277 33.717 27.6941 32.6526 28.8667 32.3508V24.9945L22.1346 35.0927L24.6107 43.1401H34.4816ZM24.1089 47.2182H34.9837V57.4129H24.1089V47.2182ZM29.5464 36.3432C30.2971 36.3432 30.9057 35.7346 30.9057 34.9838C30.9057 34.2331 30.2971 33.6245 29.5464 33.6245C28.7956 33.6245 28.187 34.2331 28.187 34.9838C28.187 35.7346 28.7956 36.3432 29.5464 36.3432Z" fill="white"/>
</svg>
