<svg width="60" height="60" viewBox="0 0 60 60" fill="none" xmlns="http://www.w3.org/2000/svg">
<path fill-rule="evenodd" clip-rule="evenodd" d="M56.7334 8.35935H3.7187C2.96796 8.35935 2.35935 8.96796 2.35935 9.71871L2.35935 38.2651L58.0928 38.2651V9.7187C58.0928 8.96796 57.4842 8.35935 56.7334 8.35935ZM2.35935 42.3432L2.35935 39.6245L58.0928 39.6245V42.3432C58.0928 43.0939 57.4842 43.7025 56.7334 43.7025H3.71871C2.96796 43.7025 2.35935 43.0939 2.35935 42.3432ZM59.4521 42.3432V39.6245V38.2651V9.7187C59.4521 8.21721 58.2349 7 56.7334 7H3.7187C2.21721 7 1 8.21721 1 9.71871V42.3432C1 43.8447 2.21721 45.0619 3.71871 45.0619H23.6559L22.7496 47.7808H17.9917C17.6163 47.7808 17.312 48.0851 17.312 48.4604V52.5385C17.312 52.9139 17.6163 53.2182 17.9917 53.2182H43.8194C44.1948 53.2182 44.4991 52.9139 44.4991 52.5385V48.4604C44.4991 48.0851 44.1948 47.7808 43.8194 47.7808H39.062L38.1557 45.0619H56.7334C58.2349 45.0619 59.4521 43.8447 59.4521 42.3432ZM24.1825 47.7808L25.0888 45.0619H36.7228L37.6291 47.7808H24.1825ZM18.6714 51.8588V49.1401H43.1397V51.8588H18.6714ZM25.2693 17.6759C25.5348 17.4105 25.5348 16.9801 25.2693 16.7147C25.0039 16.4493 24.5736 16.4493 24.3081 16.7147L17.7104 23.3124L24.3081 29.9101C24.5736 30.1755 25.0039 30.1755 25.2693 29.9101C25.5348 29.6446 25.5348 29.2143 25.2693 28.9489L19.6329 23.3124L25.2693 17.6759ZM37.2219 16.7147C36.9564 16.9801 36.9564 17.4105 37.2219 17.6759L42.8583 23.3124L37.2219 28.9489C36.9564 29.2143 36.9564 29.6446 37.2219 29.9101C37.4873 30.1755 37.9176 30.1755 38.1831 29.9101L44.7808 23.3124L38.1831 16.7147C37.9176 16.4493 37.4873 16.4493 37.2219 16.7147ZM34.19 19.423C34.3982 19.1106 34.3138 18.6887 34.0015 18.4804C33.6892 18.2722 33.2672 18.3566 33.059 18.6689L27.6215 26.8251C27.4133 27.1374 27.4977 27.5594 27.8101 27.7676C28.1224 27.9758 28.5444 27.8914 28.7526 27.5791L34.19 19.423Z" fill="white"/>
</svg>
