<svg width="60" height="60" viewBox="0 0 60 60" fill="none" xmlns="http://www.w3.org/2000/svg">
<path fill-rule="evenodd" clip-rule="evenodd" d="M39.7794 4.96945C42.4845 7.08083 44.0525 10.0445 45.0926 12.9803C48.7087 12.4171 52.0795 12.7955 54.6864 14.447C57.4588 16.2034 59.2361 19.3154 59.5881 23.8935C59.9454 28.5401 58.1509 31.9378 55.5291 34.1562C52.9321 36.3535 49.5458 37.3786 46.685 37.3786H37.1611V54.0358H40.6447C40.9464 52.8631 42.0109 51.9966 43.2778 51.9966C44.7793 51.9966 45.9965 53.2138 45.9965 54.7153C45.9965 56.2168 44.7793 57.434 43.2778 57.434C42.0111 57.434 40.9467 56.5677 40.6448 55.3952H37.1611C36.4104 55.3952 35.8018 54.7866 35.8018 54.0358V37.3786H30.3642V52.0824C31.5368 52.3842 32.4032 53.4486 32.4032 54.7154C32.4032 56.2169 31.186 57.4341 29.6845 57.4341C28.183 57.4341 26.9657 56.2169 26.9657 54.7154C26.9657 53.4485 27.8322 52.3841 29.0049 52.0823V37.3786H11.3687C9.50776 37.3786 6.65944 36.5096 4.42429 34.6678C2.15332 32.7966 0.482983 29.8873 1.14715 25.8695C1.85965 21.5593 4.0268 18.9788 6.80202 17.6858C9.27666 16.5328 12.16 16.4372 14.7821 16.9257C15.1118 9.35018 19.9154 3.01755 26.8861 2.1959C32.7865 1.50041 36.8858 2.71088 39.7794 4.96945ZM41.9188 54.7489C41.9367 55.4841 42.5383 56.0746 43.2778 56.0746C44.0285 56.0746 44.6371 55.466 44.6371 54.7153C44.6371 53.9645 44.0285 53.3559 43.2778 53.3559C42.5383 53.3559 41.9367 53.9464 41.9188 54.6816V54.7489ZM27.0452 3.54591C32.6766 2.88212 36.3936 4.05113 38.943 6.04103C41.5116 8.04583 42.991 10.9572 43.9924 13.9614L44.1789 14.5207L44.7589 14.4152C48.4017 13.7527 51.6064 14.1049 53.9589 15.5953C56.2841 17.0684 57.9051 19.7358 58.2328 23.9977C58.5552 28.1913 56.9536 31.1702 54.6511 33.1184C52.3238 35.0877 49.2575 36.0192 46.685 36.0192H11.3687C9.83433 36.0192 7.28921 35.2671 5.28873 33.6187C3.32405 31.9999 1.91656 29.5499 2.4883 26.0912C3.13468 22.181 5.04554 20.0038 7.3761 18.918C9.74687 17.8134 12.6462 17.7961 15.2871 18.4215L16.1233 18.6195V17.7601C16.1233 10.3202 20.6769 4.29655 27.0452 3.54591ZM22.2352 37.398V48.6029H18.7251C18.4249 47.4279 17.3593 46.5591 16.0908 46.5591C14.5893 46.5591 13.3721 47.7763 13.3721 49.2778C13.3721 50.7793 14.5893 51.9965 16.0908 51.9965C17.3559 51.9965 18.4191 51.1324 18.7226 49.9622H22.2352C22.9859 49.9622 23.5945 49.3536 23.5945 48.6029V37.398H22.2352ZM11.333 30.9268C10.9576 30.9268 10.6533 31.2311 10.6533 31.6064C10.6533 31.9818 10.9576 32.2861 11.333 32.2861H19.4891C19.8645 32.2861 20.1688 31.9818 20.1688 31.6064C20.1688 31.2311 19.8645 30.9268 19.4891 30.9268H11.333ZM21.5283 31.6064C21.5283 31.231 21.8326 30.9267 22.208 30.9267H24.247C24.6224 30.9267 24.9267 31.231 24.9267 31.6064C24.9267 31.9818 24.6224 32.2861 24.247 32.2861H22.208C21.8326 32.2861 21.5283 31.9818 21.5283 31.6064ZM17.4501 49.2778C17.4501 50.0285 16.8415 50.6371 16.0908 50.6371C15.34 50.6371 14.7314 50.0285 14.7314 49.2778C14.7314 48.527 15.34 47.9184 16.0908 47.9184C16.8415 47.9184 17.4501 48.527 17.4501 49.2778ZM29.6845 56.0747C30.4352 56.0747 31.0438 55.4661 31.0438 54.7154C31.0438 53.9646 30.4352 53.356 29.6845 53.356C28.9337 53.356 28.3251 53.9646 28.3251 54.7154C28.3251 55.4661 28.9337 56.0747 29.6845 56.0747Z" fill="white"/>
</svg>
