<svg width="60" height="60" viewBox="0 0 60 60" fill="none" xmlns="http://www.w3.org/2000/svg">
<path fill-rule="evenodd" clip-rule="evenodd" d="M17.9919 2C17.2412 2 16.6326 2.6086 16.6326 3.35935V7.43741H4.39838C2.52151 7.43741 1 8.95892 1 10.8358V46.1789C1 48.0558 2.52151 49.5773 4.39838 49.5773H23.2029L22.0701 52.9756H17.3122C16.9369 52.9756 16.6326 53.2799 16.6326 53.6553V57.7333C16.6326 58.1087 16.9369 58.413 17.3122 58.413H43.1399C43.5153 58.413 43.8196 58.1087 43.8196 57.7333V53.6553C43.8196 53.2799 43.5153 52.9756 43.1399 52.9756H38.382L37.2493 49.5773H56.0538C57.9306 49.5773 59.4521 48.0558 59.4521 46.1789V10.8358C59.4521 8.95892 57.9306 7.43741 56.0538 7.43741H43.8196V3.35935C43.8196 2.6086 43.211 2 42.4602 2H40.4212C39.6705 2 39.0619 2.6086 39.0619 3.35935V5.39838H32.9448V3.35935C32.9448 2.6086 32.3362 2 31.5854 2H28.8667C28.116 2 27.5074 2.6086 27.5074 3.35935V5.39838H21.3903V3.35935C21.3903 2.6086 20.7817 2 20.0309 2H17.9919ZM35.8164 49.5773L36.9491 52.9756H23.503L24.6358 49.5773H35.8164ZM43.8196 8.79676V11.5155C43.8196 12.2662 43.211 12.8748 42.4602 12.8748H37.8346L41.108 31.2261H41.7806C42.5313 31.2261 43.1399 31.8347 43.1399 32.5854V35.3041H45.8586C46.234 35.3041 46.5383 35.6084 46.5383 35.9838V40.0619C46.5383 40.4372 46.234 40.7415 45.8586 40.7415H14.5935C14.2181 40.7415 13.9138 40.4372 13.9138 40.0619V35.9838C13.9138 35.6084 14.2181 35.3041 14.5935 35.3041H17.3122V32.5854C17.3122 31.8347 17.9208 31.2261 18.6716 31.2261H20.0243L23.2977 12.8748H17.9919C17.2412 12.8748 16.6326 12.2662 16.6326 11.5155V8.79676H4.39838C3.27226 8.79676 2.35935 9.70967 2.35935 10.8358V43.4604L58.0928 43.4605V10.8358C58.0928 9.70967 57.1799 8.79676 56.0538 8.79676H43.8196ZM21.4051 31.2261H39.7272L36.4538 12.8748H24.6786L21.4051 31.2261ZM18.6716 35.3041H41.7806V32.5854H18.6716V35.3041ZM2.35935 46.1789V44.8198L58.0928 44.8198V46.1789C58.0928 47.3051 57.1799 48.218 56.0538 48.218H4.39838C3.27226 48.218 2.35935 47.3051 2.35935 46.1789ZM17.9919 3.35935H20.0309V6.75773H28.8667V3.35935H31.5854V6.75773H40.4212V3.35935H42.4602V11.5155H17.9919V3.35935ZM15.2732 39.3822V36.6635H45.1789V39.3822H15.2732ZM17.9919 54.3349V57.0536H42.4603V54.3349H17.9919Z" fill="white"/>
</svg>
